<svg width="308" height="108" viewBox="0 0 308 108" fill="none" xmlns="http://www.w3.org/2000/svg">
<g filter="url(#filter0_d_1_3)">
<rect width="300" height="100" transform="translate(4)" fill="white"/>
<path d="M74.532 57.676C74.0093 57.676 73.4867 57.5547 72.964 57.312C72.46 57.0693 71.984 56.7147 71.536 56.248C70.8827 55.576 70.3133 54.7733 69.828 53.84C69.3613 52.888 68.96 51.9173 68.624 50.928C68.288 49.92 68.0267 49.0053 67.84 48.184C67.6533 47.344 67.5227 46.7 67.448 46.252C66.7573 47.5773 66.0387 48.8933 65.292 50.2C64.564 51.488 63.6307 52.7573 62.492 54.008C61.4093 55.184 60.224 56.0707 58.936 56.668C57.648 57.284 56.3133 57.592 54.932 57.592C54.5027 57.592 54.064 57.564 53.616 57.508C52.384 57.3587 51.4787 57.004 50.9 56.444C50.3213 55.884 50.032 55.2867 50.032 54.652C50.032 53.9613 50.34 53.336 50.956 52.776C51.572 52.216 52.4493 51.936 53.588 51.936C53.9613 51.936 54.3627 51.9733 54.792 52.048C55.2213 52.1227 55.6693 52.244 56.136 52.412C56.3413 52.4867 56.444 52.5707 56.444 52.664C56.444 52.7387 56.3693 52.776 56.22 52.776C56.1267 52.776 56.052 52.7667 55.996 52.748C55.38 52.524 54.8293 52.412 54.344 52.412C53.56 52.412 52.9627 52.6453 52.552 53.112C52.1413 53.56 51.936 54.0547 51.936 54.596C51.936 55.1187 52.16 55.604 52.608 56.052C53.056 56.5 53.7467 56.724 54.68 56.724C55.856 56.724 56.9387 56.4533 57.928 55.912C58.9173 55.352 59.8413 54.596 60.7 53.644C61.5587 52.6733 62.38 51.5813 63.164 50.368C63.948 49.136 64.7133 47.8573 65.46 46.532C66.7107 44.3107 67.84 42.2947 68.848 40.484C69.8747 38.6547 70.9573 37.1053 72.096 35.836C71.592 35.78 71.0787 35.7427 70.556 35.724C70.0333 35.7053 69.5013 35.696 68.96 35.696C67.784 35.696 66.5613 35.7613 65.292 35.892C64.0413 36.004 62.828 36.1907 61.652 36.452C60.0653 36.788 58.7027 37.292 57.564 37.964C56.4253 38.6173 55.52 39.3547 54.848 40.176C54.1947 40.9787 53.784 41.7907 53.616 42.612C53.56 42.9107 53.532 43.2 53.532 43.48C53.532 44.432 53.8493 45.1693 54.484 45.692C55.1187 46.2147 55.8467 46.476 56.668 46.476C57.1907 46.476 57.7133 46.3733 58.236 46.168C58.7773 45.944 59.2627 45.5987 59.692 45.132C60.0467 44.7587 60.308 44.4133 60.476 44.096C60.644 43.76 60.7373 43.508 60.756 43.34C60.7747 43.0787 60.8307 42.948 60.924 42.948C60.98 42.948 61.0267 42.9947 61.064 43.088C61.12 43.1813 61.1387 43.2747 61.12 43.368C61.0453 43.7973 60.9147 44.2173 60.728 44.628C60.5413 45.0387 60.3173 45.384 60.056 45.664C59.5333 46.2053 58.936 46.6067 58.264 46.868C57.592 47.1293 56.948 47.26 56.332 47.26C55.604 47.26 54.9133 47.1013 54.26 46.784C53.6253 46.4667 53.112 46.0093 52.72 45.412C52.328 44.796 52.132 44.04 52.132 43.144C52.132 42.0987 52.496 41.0347 53.224 39.952C53.952 38.8507 55.044 37.88 56.5 37.04C57.9747 36.2 59.804 35.6213 61.988 35.304C63.0893 35.1547 64.1533 35.0427 65.18 34.968C66.2253 34.8747 67.2333 34.828 68.204 34.828C68.988 34.828 69.7533 34.856 70.5 34.912C71.2467 34.968 71.984 35.0427 72.712 35.136C73.1973 34.632 73.524 34.38 73.692 34.38C73.8227 34.38 73.888 34.4827 73.888 34.688C73.888 34.7627 73.8787 34.856 73.86 34.968C73.8413 35.08 73.8133 35.192 73.776 35.304C74.28 35.3787 74.7653 35.4627 75.232 35.556C75.7173 35.6307 76.1467 35.724 76.52 35.836C77.9947 36.2467 79.068 36.788 79.74 37.46C80.4307 38.1133 80.776 38.8227 80.776 39.588C80.776 40.4093 80.4027 41.2307 79.656 42.052C78.928 42.8733 77.892 43.6013 76.548 44.236C75.2227 44.8707 73.664 45.3373 71.872 45.636C71.2933 45.7293 70.78 45.7947 70.332 45.832C69.9027 45.8693 69.5293 45.8973 69.212 45.916C69.2493 46.1027 69.3333 46.4947 69.464 47.092C69.5947 47.6893 69.7813 48.3987 70.024 49.22C70.2667 50.0227 70.5747 50.872 70.948 51.768C71.34 52.664 71.8067 53.5133 72.348 54.316C72.7773 54.9507 73.216 55.4733 73.664 55.884C74.112 56.2947 74.588 56.5 75.092 56.5C75.4093 56.5 75.736 56.416 76.072 56.248C76.4267 56.08 76.7907 55.8093 77.164 55.436C77.612 54.988 78.0227 54.484 78.396 53.924C78.7693 53.364 79.0867 52.832 79.348 52.328C79.6093 51.8053 79.8053 51.3947 79.936 51.096C80.048 51.096 80.132 51.1053 80.188 51.124C80.244 51.1427 80.272 51.2173 80.272 51.348C80.1973 51.5347 80.0667 51.8333 79.88 52.244C79.6933 52.636 79.4693 53.084 79.208 53.588C78.9653 54.0733 78.6947 54.5587 78.396 55.044C78.0973 55.5293 77.7987 55.94 77.5 56.276C77.0707 56.7427 76.5853 57.088 76.044 57.312C75.5213 57.5547 75.0173 57.676 74.532 57.676ZM68.036 45.16C68.5773 45.0667 69.156 45.0013 69.772 44.964C70.388 44.9267 70.9947 44.8707 71.592 44.796C72.5627 44.6653 73.4773 44.4133 74.336 44.04C75.1947 43.648 75.9507 43.1813 76.604 42.64C77.276 42.0987 77.7987 41.5293 78.172 40.932C78.5453 40.316 78.732 39.728 78.732 39.168C78.732 37.8987 77.8827 37.0213 76.184 36.536C75.848 36.4427 75.4093 36.3493 74.868 36.256C74.3453 36.1627 73.8693 36.0787 73.44 36.004C72.544 37.5347 71.62 39.0373 70.668 40.512C69.7347 41.9867 68.8573 43.536 68.036 45.16ZM81.625 56.5C80.8596 56.5 80.2903 56.2293 79.917 55.688C79.5623 55.128 79.385 54.456 79.385 53.672C79.385 52.944 79.525 52.188 79.805 51.404C80.1036 50.5453 80.5143 49.7613 81.037 49.052C81.5783 48.3427 82.1663 47.7733 82.801 47.344C83.4543 46.896 84.0983 46.672 84.733 46.672C85.4983 46.672 86.0583 46.9333 86.413 47.456C86.7863 47.9787 86.973 48.6413 86.973 49.444C86.973 50.004 86.8796 50.592 86.693 51.208C86.5063 51.824 86.2543 52.4307 85.937 53.028C86.1796 53.2707 86.525 53.392 86.973 53.392C87.4956 53.392 87.9436 53.224 88.317 52.888C88.6903 52.552 89.0543 51.9547 89.409 51.096C89.633 51.096 89.745 51.18 89.745 51.348C89.3903 52.2067 88.9796 52.8413 88.513 53.252C88.065 53.644 87.4863 53.8307 86.777 53.812C86.3476 53.812 85.993 53.6907 85.713 53.448C85.1903 54.3067 84.565 55.0347 83.837 55.632C83.1276 56.2107 82.3903 56.5 81.625 56.5ZM82.017 55.884C82.4463 55.884 82.8756 55.7067 83.305 55.352C83.7343 54.9787 84.1263 54.5587 84.481 54.092C84.8356 53.6253 85.0876 53.224 85.237 52.888C84.9383 52.3467 84.761 51.9453 84.705 51.684C84.6676 51.404 84.649 51.1987 84.649 51.068C84.649 50.7133 84.7423 50.4427 84.929 50.256C85.1156 50.0693 85.3023 49.976 85.489 49.976C85.7503 49.976 85.9743 50.088 86.161 50.312C86.1983 50.1067 86.2263 49.92 86.245 49.752C86.2636 49.5653 86.273 49.388 86.273 49.22C86.273 48.7347 86.1796 48.3427 85.993 48.044C85.825 47.7267 85.5543 47.568 85.181 47.568C84.789 47.568 84.3783 47.736 83.949 48.072C83.5196 48.408 83.109 48.856 82.717 49.416C82.3436 49.976 82.017 50.6013 81.737 51.292C81.4943 51.8707 81.3076 52.4213 81.177 52.944C81.0463 53.448 80.981 53.9147 80.981 54.344C80.981 54.8107 81.065 55.184 81.233 55.464C81.401 55.744 81.6623 55.884 82.017 55.884ZM85.5419 65.432C84.5712 65.432 83.8806 65.236 83.4699 64.844C83.0592 64.4707 82.8539 64.0227 82.8539 63.5C82.8539 62.6973 83.1526 61.9507 83.7499 61.26C84.3286 60.588 85.0472 60.0467 85.9059 59.636C86.8766 59.188 87.9779 58.824 89.2099 58.544C90.4606 58.264 91.6552 57.956 92.7939 57.62C93.1486 57.004 93.4752 56.304 93.7739 55.52C94.0726 54.7173 94.3432 53.9427 94.5859 53.196C94.8286 52.4307 95.0246 51.8053 95.1739 51.32C94.9499 51.7307 94.6606 52.2347 94.3059 52.832C93.9699 53.4107 93.5872 53.98 93.1579 54.54C92.7286 55.1 92.2619 55.5667 91.7579 55.94C91.2726 56.3133 90.7592 56.5 90.2179 56.5C90.0126 56.5 89.7606 56.4533 89.4619 56.36C89.1819 56.2667 88.9299 56.0987 88.7059 55.856C88.5006 55.5947 88.3979 55.212 88.3979 54.708C88.3979 54.2227 88.5472 53.6907 88.8459 53.112C89.1446 52.5147 89.4432 51.9267 89.7419 51.348C89.6486 51.348 89.5646 51.3387 89.4899 51.32C89.4339 51.3013 89.4059 51.2267 89.4059 51.096C89.4619 50.984 89.5739 50.7413 89.7419 50.368C89.9099 49.9947 90.0966 49.584 90.3019 49.136C90.5259 48.688 90.7219 48.296 90.8899 47.96C91.0952 47.5307 91.3192 47.232 91.5619 47.064C91.8232 46.896 92.0752 46.812 92.3179 46.812H94.0539C93.9232 46.924 93.7552 47.0547 93.5499 47.204C93.3632 47.3347 93.1859 47.54 93.0179 47.82C92.5139 48.6787 92.0752 49.5093 91.7019 50.312C91.3286 51.096 90.9272 51.936 90.4979 52.832C90.2926 53.2613 90.1432 53.6533 90.0499 54.008C89.9566 54.3627 89.9099 54.6707 89.9099 54.932C89.9099 55.548 90.1152 55.856 90.5259 55.856C90.9739 55.856 91.5152 55.492 92.1499 54.764C92.6726 54.148 93.1952 53.42 93.7179 52.58C94.2592 51.7213 94.7726 50.844 95.2579 49.948C95.7619 49.0333 96.2006 48.1933 96.5739 47.428C96.7792 47.0173 97.1432 46.812 97.6659 46.812H99.2059C98.6646 47.1853 98.2446 47.6707 97.9459 48.268C97.6659 48.8653 97.3486 49.6307 96.9939 50.564C96.6019 51.5907 96.2286 52.6547 95.8739 53.756C95.5192 54.8573 95.1272 55.9867 94.6979 57.144C95.6126 56.8267 96.3779 56.416 96.9939 55.912C97.6099 55.408 98.1512 54.764 98.6179 53.98C99.1032 53.1773 99.5886 52.216 100.074 51.096C100.298 51.096 100.41 51.18 100.41 51.348C99.9992 52.2067 99.6259 52.9627 99.2899 53.616C98.9539 54.2693 98.5806 54.848 98.1699 55.352C97.7592 55.8373 97.2459 56.2853 96.6299 56.696C96.0139 57.1253 95.2206 57.536 94.2499 57.928C93.8019 58.7307 93.2886 59.5613 92.7099 60.42C92.1499 61.2973 91.5059 62.1093 90.7779 62.856C90.0686 63.6213 89.2752 64.2373 88.3979 64.704C87.5392 65.1893 86.5872 65.432 85.5419 65.432ZM84.8699 64.872C85.4859 64.872 86.1206 64.6853 86.7739 64.312C87.4272 63.9387 88.0619 63.4627 88.6779 62.884C89.2939 62.324 89.8539 61.7453 90.3579 61.148C90.8806 60.5693 91.3006 60.056 91.6179 59.608C91.7112 59.4773 91.8139 59.3093 91.9259 59.104C92.0379 58.8987 92.1499 58.7027 92.2619 58.516C91.3472 58.7587 90.3392 59.02 89.2379 59.3C88.1552 59.5987 87.2126 59.9253 86.4099 60.28C85.5139 60.6533 84.8139 61.1853 84.3099 61.876C83.7872 62.5667 83.5259 63.1827 83.5259 63.724C83.5259 64.06 83.6379 64.3307 83.8619 64.536C84.0672 64.76 84.4032 64.872 84.8699 64.872ZM106.146 56.584C105.717 56.584 105.334 56.4627 104.998 56.22C104.681 55.9773 104.522 55.4827 104.522 54.736C104.522 54.4187 104.541 54.12 104.578 53.84C104.634 53.56 104.699 53.2613 104.774 52.944C104.606 53.224 104.373 53.5693 104.074 53.98C103.775 54.3907 103.439 54.792 103.066 55.184C102.711 55.576 102.338 55.9027 101.946 56.164C101.573 56.4253 101.218 56.556 100.882 56.556C100.397 56.556 100.005 56.3413 99.706 55.912C99.4073 55.464 99.258 54.8853 99.258 54.176C99.258 53.4107 99.4353 52.5893 99.79 51.712C100.145 50.8347 100.63 49.9947 101.246 49.192C101.862 48.3893 102.571 47.736 103.374 47.232C104.177 46.728 105.017 46.476 105.894 46.476C106.323 46.476 106.734 46.5507 107.126 46.7C107.518 46.8307 107.863 47.0547 108.162 47.372C108.293 47.5027 108.358 47.652 108.358 47.82C108.358 47.932 108.311 48.0253 108.218 48.1C108.125 48.1747 108.003 48.1933 107.854 48.156C107.649 47.5027 107.21 47.176 106.538 47.176C106.221 47.176 105.857 47.2787 105.446 47.484C104.942 47.7453 104.401 48.1653 103.822 48.744C103.262 49.304 102.73 49.948 102.226 50.676C101.741 51.3853 101.339 52.104 101.022 52.832C100.705 53.56 100.546 54.2227 100.546 54.82C100.546 55.436 100.779 55.744 101.246 55.744C101.657 55.744 102.077 55.548 102.506 55.156C102.954 54.764 103.374 54.2787 103.766 53.7C104.177 53.1027 104.55 52.5147 104.886 51.936C105.222 51.3573 105.483 50.8907 105.67 50.536C105.95 50.032 106.211 49.612 106.454 49.276C106.697 48.94 107.042 48.772 107.49 48.772C107.695 48.772 107.901 48.8 108.106 48.856C108.311 48.912 108.526 48.9213 108.75 48.884C108.19 49.444 107.695 50.1067 107.266 50.872C106.855 51.6373 106.538 52.3933 106.314 53.14C106.09 53.868 105.978 54.484 105.978 54.988C105.978 55.548 106.165 55.828 106.538 55.828C106.837 55.828 107.154 55.66 107.49 55.324C107.845 54.988 108.181 54.568 108.498 54.064C108.834 53.5413 109.142 53.0187 109.422 52.496C109.702 51.9547 109.926 51.488 110.094 51.096C110.187 51.096 110.262 51.1053 110.318 51.124C110.393 51.1427 110.43 51.2173 110.43 51.348C110.411 51.4227 110.374 51.5067 110.318 51.6C110.281 51.6747 110.215 51.8147 110.122 52.02C109.973 52.3187 109.767 52.72 109.506 53.224C109.245 53.728 108.937 54.2413 108.582 54.764C108.227 55.268 107.845 55.6973 107.434 56.052C107.023 56.4067 106.594 56.584 106.146 56.584ZM111.421 56.584C110.73 56.584 110.217 56.3787 109.881 55.968C109.564 55.5387 109.405 55.0347 109.405 54.456C109.405 53.8587 109.489 53.2427 109.657 52.608C109.825 51.9733 109.974 51.4413 110.105 51.012C110.404 49.9667 110.777 48.856 111.225 47.68C111.692 46.4853 112.196 45.3187 112.737 44.18C113.297 43.0227 113.848 41.9867 114.389 41.072C114.818 40.344 115.276 39.8027 115.761 39.448C116.265 39.0747 116.704 38.888 117.077 38.888C117.376 38.888 117.609 39 117.777 39.224C117.964 39.4293 118.057 39.7467 118.057 40.176C118.057 40.4747 118.001 40.8293 117.889 41.24C117.796 41.6507 117.628 42.1173 117.385 42.64C116.732 44.096 115.948 45.552 115.033 47.008C114.137 48.464 112.998 49.8267 111.617 51.096C111.393 51.6187 111.206 52.1787 111.057 52.776C110.908 53.3733 110.833 53.8587 110.833 54.232C110.833 55.3893 111.225 55.968 112.009 55.968C112.606 55.968 113.269 55.5387 113.997 54.68C114.725 53.8027 115.416 52.608 116.069 51.096C116.144 51.096 116.218 51.1147 116.293 51.152C116.368 51.1707 116.405 51.236 116.405 51.348C116.2 51.852 115.938 52.412 115.621 53.028C115.322 53.6253 114.968 54.1947 114.557 54.736C114.165 55.2773 113.708 55.7253 113.185 56.08C112.662 56.416 112.074 56.584 111.421 56.584ZM111.841 50.2C112.513 49.5093 113.166 48.716 113.801 47.82C114.436 46.9053 115.024 45.9627 115.565 44.992C116.125 44.0027 116.592 43.0693 116.965 42.192C117.096 41.912 117.198 41.604 117.273 41.268C117.366 40.932 117.413 40.652 117.413 40.428C117.413 40.1667 117.348 40.036 117.217 40.036C117.142 40.036 117.03 40.1107 116.881 40.26C116.732 40.3907 116.536 40.624 116.293 40.96C115.938 41.4267 115.546 42.0613 115.117 42.864C114.706 43.6667 114.286 44.5253 113.857 45.44C113.428 46.3547 113.036 47.2413 112.681 48.1C112.326 48.94 112.046 49.64 111.841 50.2ZM144.231 57.676C143.709 57.676 143.186 57.5547 142.663 57.312C142.159 57.0693 141.683 56.7147 141.235 56.248C140.582 55.576 140.013 54.7733 139.527 53.84C139.061 52.888 138.659 51.9173 138.323 50.928C137.987 49.92 137.726 49.0053 137.539 48.184C137.353 47.344 137.222 46.7 137.147 46.252C136.457 47.5773 135.738 48.8933 134.991 50.2C134.263 51.488 133.33 52.7573 132.191 54.008C131.109 55.184 129.923 56.0707 128.635 56.668C127.347 57.284 126.013 57.592 124.631 57.592C124.202 57.592 123.763 57.564 123.315 57.508C122.083 57.3587 121.178 57.004 120.599 56.444C120.021 55.884 119.731 55.2867 119.731 54.652C119.731 53.9613 120.039 53.336 120.655 52.776C121.271 52.216 122.149 51.936 123.287 51.936C123.661 51.936 124.062 51.9733 124.491 52.048C124.921 52.1227 125.369 52.244 125.835 52.412C126.041 52.4867 126.143 52.5707 126.143 52.664C126.143 52.7387 126.069 52.776 125.919 52.776C125.826 52.776 125.751 52.7667 125.695 52.748C125.079 52.524 124.529 52.412 124.043 52.412C123.259 52.412 122.662 52.6453 122.251 53.112C121.841 53.56 121.635 54.0547 121.635 54.596C121.635 55.1187 121.859 55.604 122.307 56.052C122.755 56.5 123.446 56.724 124.379 56.724C125.555 56.724 126.638 56.4533 127.627 55.912C128.617 55.352 129.541 54.596 130.399 53.644C131.258 52.6733 132.079 51.5813 132.863 50.368C133.647 49.136 134.413 47.8573 135.159 46.532C136.41 44.3107 137.539 42.2947 138.547 40.484C139.574 38.6547 140.657 37.1053 141.795 35.836C141.291 35.78 140.778 35.7427 140.255 35.724C139.733 35.7053 139.201 35.696 138.659 35.696C137.483 35.696 136.261 35.7613 134.991 35.892C133.741 36.004 132.527 36.1907 131.351 36.452C129.765 36.788 128.402 37.292 127.263 37.964C126.125 38.6173 125.219 39.3547 124.547 40.176C123.894 40.9787 123.483 41.7907 123.315 42.612C123.259 42.9107 123.231 43.2 123.231 43.48C123.231 44.432 123.549 45.1693 124.183 45.692C124.818 46.2147 125.546 46.476 126.367 46.476C126.89 46.476 127.413 46.3733 127.935 46.168C128.477 45.944 128.962 45.5987 129.391 45.132C129.746 44.7587 130.007 44.4133 130.175 44.096C130.343 43.76 130.437 43.508 130.455 43.34C130.474 43.0787 130.53 42.948 130.623 42.948C130.679 42.948 130.726 42.9947 130.763 43.088C130.819 43.1813 130.838 43.2747 130.819 43.368C130.745 43.7973 130.614 44.2173 130.427 44.628C130.241 45.0387 130.017 45.384 129.755 45.664C129.233 46.2053 128.635 46.6067 127.963 46.868C127.291 47.1293 126.647 47.26 126.031 47.26C125.303 47.26 124.613 47.1013 123.959 46.784C123.325 46.4667 122.811 46.0093 122.419 45.412C122.027 44.796 121.831 44.04 121.831 43.144C121.831 42.0987 122.195 41.0347 122.923 39.952C123.651 38.8507 124.743 37.88 126.199 37.04C127.674 36.2 129.503 35.6213 131.687 35.304C132.789 35.1547 133.853 35.0427 134.879 34.968C135.925 34.8747 136.933 34.828 137.903 34.828C138.687 34.828 139.453 34.856 140.199 34.912C140.946 34.968 141.683 35.0427 142.411 35.136C142.897 34.632 143.223 34.38 143.391 34.38C143.522 34.38 143.587 34.4827 143.587 34.688C143.587 34.7627 143.578 34.856 143.559 34.968C143.541 35.08 143.513 35.192 143.475 35.304C143.979 35.3787 144.465 35.4627 144.931 35.556C145.417 35.6307 145.846 35.724 146.219 35.836C147.694 36.2467 148.767 36.788 149.439 37.46C150.13 38.1133 150.475 38.8227 150.475 39.588C150.475 40.4093 150.102 41.2307 149.355 42.052C148.627 42.8733 147.591 43.6013 146.247 44.236C144.922 44.8707 143.363 45.3373 141.571 45.636C140.993 45.7293 140.479 45.7947 140.031 45.832C139.602 45.8693 139.229 45.8973 138.911 45.916C138.949 46.1027 139.033 46.4947 139.163 47.092C139.294 47.6893 139.481 48.3987 139.723 49.22C139.966 50.0227 140.274 50.872 140.647 51.768C141.039 52.664 141.506 53.5133 142.047 54.316C142.477 54.9507 142.915 55.4733 143.363 55.884C143.811 56.2947 144.287 56.5 144.791 56.5C145.109 56.5 145.435 56.416 145.771 56.248C146.126 56.08 146.49 55.8093 146.863 55.436C147.311 54.988 147.722 54.484 148.095 53.924C148.469 53.364 148.786 52.832 149.047 52.328C149.309 51.8053 149.505 51.3947 149.635 51.096C149.747 51.096 149.831 51.1053 149.887 51.124C149.943 51.1427 149.971 51.2173 149.971 51.348C149.897 51.5347 149.766 51.8333 149.579 52.244C149.393 52.636 149.169 53.084 148.907 53.588C148.665 54.0733 148.394 54.5587 148.095 55.044C147.797 55.5293 147.498 55.94 147.199 56.276C146.77 56.7427 146.285 57.088 145.743 57.312C145.221 57.5547 144.717 57.676 144.231 57.676ZM137.735 45.16C138.277 45.0667 138.855 45.0013 139.471 44.964C140.087 44.9267 140.694 44.8707 141.291 44.796C142.262 44.6653 143.177 44.4133 144.035 44.04C144.894 43.648 145.65 43.1813 146.303 42.64C146.975 42.0987 147.498 41.5293 147.871 40.932C148.245 40.316 148.431 39.728 148.431 39.168C148.431 37.8987 147.582 37.0213 145.883 36.536C145.547 36.4427 145.109 36.3493 144.567 36.256C144.045 36.1627 143.569 36.0787 143.139 36.004C142.243 37.5347 141.319 39.0373 140.367 40.512C139.434 41.9867 138.557 43.536 137.735 45.16ZM151.66 56.612C150.97 56.612 150.344 56.388 149.784 55.94C149.243 55.492 148.972 54.8107 148.972 53.896C148.972 53.056 149.178 52.16 149.588 51.208C149.999 50.2373 150.522 49.388 151.156 48.66C151.698 48.0253 152.304 47.5027 152.976 47.092C153.648 46.6813 154.283 46.476 154.88 46.476C155.291 46.476 155.646 46.588 155.944 46.812C156.262 47.0547 156.42 47.4 156.42 47.848C156.42 48.3147 156.243 48.828 155.888 49.388C155.534 49.948 155.03 50.4707 154.376 50.956C154.096 51.1613 153.742 51.3573 153.312 51.544C152.883 51.7307 152.454 51.8893 152.024 52.02C151.595 52.132 151.24 52.188 150.96 52.188C150.867 52.412 150.774 52.7107 150.68 53.084C150.606 53.4573 150.568 53.84 150.568 54.232C150.568 54.6987 150.662 55.1187 150.848 55.492C151.035 55.8653 151.38 56.052 151.884 56.052C152.538 56.052 153.21 55.828 153.9 55.38C154.591 54.932 155.244 54.3813 155.86 53.728C156.495 53.056 157.018 52.3933 157.428 51.74C157.652 51.2547 157.886 50.7787 158.128 50.312C158.371 49.8267 158.614 49.3507 158.856 48.884C159.23 48.212 159.547 47.7453 159.808 47.484C160.07 47.204 160.415 47.064 160.844 47.064C160.994 47.064 161.152 47.092 161.32 47.148C161.488 47.1853 161.656 47.204 161.824 47.204C161.936 47.204 162.02 47.1947 162.076 47.176C161.815 47.3253 161.47 47.6987 161.04 48.296C160.63 48.8747 160.21 49.5467 159.78 50.312C159.351 51.0773 158.968 51.796 158.632 52.468C158.987 52.0387 159.36 51.6093 159.752 51.18C160.144 50.7507 160.574 50.34 161.04 49.948C161.488 49.556 162.02 49.1547 162.636 48.744C163.271 48.3147 163.887 47.96 164.484 47.68C165.082 47.4 165.558 47.26 165.912 47.26C166.043 47.26 166.136 47.2693 166.192 47.288C166.192 47.288 166.09 47.4747 165.884 47.848C165.679 48.2027 165.418 48.6787 165.1 49.276C164.802 49.8547 164.494 50.48 164.176 51.152C163.859 51.8053 163.57 52.44 163.308 53.056C163.066 53.6533 162.907 54.1573 162.832 54.568C162.776 54.8107 162.748 55.0347 162.748 55.24C162.748 55.5387 162.804 55.7347 162.916 55.828C163.028 55.9213 163.15 55.968 163.28 55.968C163.635 55.968 163.999 55.8093 164.372 55.492C164.746 55.1747 165.1 54.764 165.436 54.26C165.791 53.756 166.118 53.224 166.416 52.664C166.715 52.104 166.967 51.5813 167.172 51.096C167.396 51.096 167.508 51.18 167.508 51.348C167.303 51.852 167.042 52.412 166.724 53.028C166.426 53.6253 166.08 54.204 165.688 54.764C165.315 55.3053 164.895 55.7533 164.428 56.108C163.962 56.4627 163.458 56.64 162.916 56.64C162.543 56.64 162.151 56.5093 161.74 56.248C161.348 55.9867 161.152 55.5013 161.152 54.792C161.152 54.5867 161.171 54.372 161.208 54.148C161.246 53.9053 161.311 53.644 161.404 53.364C161.554 52.9907 161.731 52.5893 161.936 52.16C162.142 51.7307 162.478 51.1427 162.944 50.396C163.075 50.1907 163.15 50.032 163.168 49.92C163.206 49.808 163.224 49.7147 163.224 49.64C163.224 49.416 163.122 49.304 162.916 49.304C162.748 49.304 162.496 49.3973 162.16 49.584C161.843 49.7707 161.442 50.0973 160.956 50.564C160.49 51.012 159.93 51.6467 159.276 52.468C158.642 53.2893 157.904 54.5027 157.064 56.108C156.934 56.3507 156.784 56.4813 156.616 56.5C156.467 56.5187 156.252 56.5373 155.972 56.556C155.786 56.5747 155.608 56.5933 155.44 56.612C155.272 56.6307 155.132 56.6773 155.02 56.752C155.244 56.304 155.459 55.856 155.664 55.408C155.888 54.96 156.103 54.5213 156.308 54.092C155.674 54.7827 154.955 55.38 154.152 55.884C153.35 56.3693 152.519 56.612 151.66 56.612ZM151.156 51.684C151.418 51.684 151.856 51.5907 152.472 51.404C153.088 51.1987 153.648 50.8813 154.152 50.452C154.638 50.0227 155.011 49.556 155.272 49.052C155.534 48.5293 155.664 48.0907 155.664 47.736C155.664 47.3253 155.515 47.12 155.216 47.12C154.992 47.12 154.684 47.2693 154.292 47.568C153.9 47.8667 153.415 48.3707 152.836 49.08C152.482 49.528 152.146 50.0133 151.828 50.536C151.511 51.0587 151.287 51.4413 151.156 51.684ZM173.584 56.5C172.949 56.5 172.482 56.2853 172.184 55.856C171.885 55.4267 171.736 54.9227 171.736 54.344C171.736 54.176 171.745 54.008 171.764 53.84C171.782 53.6533 171.82 53.4667 171.876 53.28C171.614 53.6907 171.306 54.148 170.952 54.652C170.616 55.1373 170.224 55.5667 169.776 55.94C169.346 56.2947 168.861 56.472 168.32 56.472C168.077 56.472 167.797 56.416 167.48 56.304C167.181 56.192 166.91 55.9773 166.668 55.66C166.444 55.3427 166.332 54.876 166.332 54.26C166.332 53.4573 166.509 52.608 166.864 51.712C167.218 50.816 167.704 49.976 168.32 49.192C168.936 48.3893 169.636 47.7453 170.42 47.26C171.204 46.756 172.016 46.504 172.856 46.504C173.528 46.504 174.162 46.6813 174.76 47.036C175.04 46.5133 175.338 45.9347 175.656 45.3C175.973 44.6467 176.29 44.0027 176.608 43.368C176.925 42.7333 177.205 42.1547 177.448 41.632C177.69 41.0907 177.877 40.68 178.008 40.4C178.288 39.7467 178.549 39.336 178.792 39.168C179.053 38.9813 179.361 38.888 179.716 38.888C179.921 38.888 180.145 38.916 180.388 38.972C180.649 39.0093 180.901 39.0187 181.144 39C181.05 39.0933 180.836 39.4013 180.5 39.924C180.164 40.4467 179.753 41.128 179.268 41.968C178.782 42.7893 178.26 43.6947 177.7 44.684C177.158 45.6733 176.617 46.6907 176.076 47.736C175.553 48.7627 175.068 49.752 174.62 50.704C174.172 51.656 173.817 52.496 173.556 53.224C173.294 53.952 173.164 54.5027 173.164 54.876C173.164 55.1187 173.22 55.3333 173.332 55.52C173.444 55.688 173.63 55.772 173.892 55.772C174.246 55.772 174.61 55.5947 174.984 55.24C175.357 54.8853 175.712 54.4467 176.048 53.924C176.402 53.3827 176.71 52.86 176.972 52.356C177.252 51.8333 177.457 51.4133 177.588 51.096C177.812 51.096 177.924 51.18 177.924 51.348C177.756 51.74 177.532 52.2253 177.252 52.804C176.972 53.3827 176.645 53.952 176.272 54.512C175.898 55.072 175.478 55.548 175.012 55.94C174.564 56.3133 174.088 56.5 173.584 56.5ZM168.516 55.66C168.777 55.66 169.104 55.52 169.496 55.24C169.888 54.9413 170.308 54.4747 170.756 53.84C171.278 53.0933 171.876 52.16 172.548 51.04C173.22 49.92 173.882 48.7347 174.536 47.484C174.405 47.372 174.265 47.288 174.116 47.232C173.966 47.176 173.761 47.148 173.5 47.148C173.07 47.148 172.594 47.3347 172.072 47.708C171.568 48.0627 171.054 48.5293 170.532 49.108C170.028 49.6867 169.561 50.312 169.132 50.984C168.721 51.656 168.385 52.3093 168.124 52.944C167.881 53.56 167.76 54.092 167.76 54.54C167.76 55.2867 168.012 55.66 168.516 55.66ZM179.606 56.612C178.915 56.612 178.29 56.388 177.73 55.94C177.188 55.492 176.918 54.8107 176.918 53.896C176.918 53.1307 177.086 52.3187 177.422 51.46C177.776 50.6013 178.234 49.7987 178.794 49.052C179.372 48.2867 180.007 47.6707 180.698 47.204C181.407 46.7187 182.116 46.476 182.826 46.476C183.18 46.476 183.526 46.5787 183.862 46.784C184.198 46.9893 184.366 47.344 184.366 47.848C184.366 48.3147 184.188 48.828 183.834 49.388C183.479 49.948 182.975 50.4707 182.322 50.956C182.042 51.1613 181.687 51.3573 181.258 51.544C180.828 51.7307 180.399 51.8893 179.97 52.02C179.54 52.132 179.186 52.188 178.906 52.188C178.812 52.412 178.719 52.7107 178.626 53.084C178.551 53.4573 178.514 53.84 178.514 54.232C178.514 54.6987 178.607 55.1187 178.794 55.492C178.98 55.8653 179.326 56.052 179.83 56.052C180.446 56.052 181.015 55.8747 181.538 55.52C182.079 55.1653 182.555 54.7173 182.966 54.176C183.395 53.6347 183.759 53.084 184.058 52.524C184.356 51.964 184.59 51.488 184.758 51.096C184.982 51.096 185.094 51.18 185.094 51.348C184.851 51.8707 184.571 52.44 184.254 53.056C183.955 53.672 183.591 54.2507 183.162 54.792C182.751 55.3147 182.247 55.7533 181.65 56.108C181.071 56.444 180.39 56.612 179.606 56.612ZM179.102 51.684C179.363 51.684 179.802 51.5907 180.418 51.404C181.034 51.1987 181.594 50.8813 182.098 50.452C182.583 50.0227 182.956 49.556 183.218 49.052C183.479 48.5293 183.61 48.0907 183.61 47.736C183.61 47.3253 183.46 47.12 183.162 47.12C182.938 47.12 182.63 47.2693 182.238 47.568C181.846 47.8667 181.36 48.3707 180.782 49.08C180.427 49.528 180.091 50.0133 179.774 50.536C179.456 51.0587 179.232 51.4413 179.102 51.684ZM184.754 51.096C184.884 50.7973 185.024 50.4893 185.174 50.172C185.323 49.836 185.538 49.416 185.818 48.912C186.154 48.3147 186.508 47.876 186.882 47.596C187.255 47.2973 187.619 47.1013 187.974 47.008C188.328 46.9147 188.618 46.868 188.842 46.868C189.308 46.868 189.719 46.9333 190.074 47.064C190.428 47.1947 190.746 47.3347 191.026 47.484C191.324 47.6147 191.614 47.68 191.894 47.68C192.248 47.68 192.51 47.5867 192.678 47.4C192.846 47.2133 192.995 47.12 193.126 47.12C193.256 47.12 193.368 47.176 193.462 47.288C193.555 47.4 193.602 47.54 193.602 47.708C193.602 47.9507 193.499 48.128 193.294 48.24C193.088 48.352 192.743 48.5387 192.258 48.8C191.735 49.08 191.268 49.4813 190.858 50.004C190.447 50.5267 190.046 51.0867 189.654 51.684C189.28 52.2813 188.87 52.8693 188.422 53.448C187.974 54.008 187.451 54.484 186.854 54.876C187.563 54.988 188.216 55.1093 188.814 55.24C189.411 55.3707 189.934 55.436 190.382 55.436C190.494 55.436 190.587 55.436 190.662 55.436C190.755 55.4173 190.848 55.3987 190.942 55.38C191.502 55.2307 191.987 54.932 192.398 54.484C192.827 54.0173 193.2 53.4853 193.518 52.888C193.835 52.2907 194.115 51.6933 194.358 51.096C194.582 51.096 194.694 51.18 194.694 51.348C194.358 52.188 193.956 53.0187 193.49 53.84C193.023 54.6613 192.5 55.3427 191.922 55.884C191.343 56.4253 190.708 56.696 190.018 56.696C189.196 56.696 188.468 56.6213 187.834 56.472C187.199 56.3227 186.667 56.248 186.238 56.248C185.883 56.248 185.538 56.3413 185.202 56.528C184.884 56.7333 184.539 56.836 184.166 56.836C183.83 56.836 183.662 56.696 183.662 56.416C183.662 56.2293 183.708 56.0707 183.802 55.94C183.858 55.828 184.054 55.7067 184.39 55.576C184.726 55.4267 185.071 55.2867 185.426 55.156C185.799 55.0067 186.051 54.8947 186.182 54.82C186.518 54.652 186.882 54.3347 187.274 53.868C187.684 53.3827 188.104 52.8413 188.534 52.244C188.963 51.628 189.383 51.0307 189.794 50.452C190.204 49.8733 190.596 49.388 190.97 48.996C190.634 48.9213 190.251 48.8373 189.822 48.744C189.392 48.6507 188.991 48.604 188.618 48.604C188.076 48.604 187.61 48.66 187.218 48.772C186.826 48.8653 186.462 49.108 186.126 49.5C185.808 49.892 185.463 50.508 185.09 51.348C184.866 51.348 184.754 51.264 184.754 51.096ZM196.283 50.62C196.19 50.62 196.143 50.5827 196.143 50.508C196.143 50.3773 196.19 50.228 196.283 50.06C196.395 49.8733 196.601 49.78 196.899 49.78H203.535C203.629 49.78 203.675 49.8173 203.675 49.892C203.675 50.0973 203.619 50.2747 203.507 50.424C203.395 50.5547 203.181 50.62 202.863 50.62H196.283ZM224.936 38.048C224.936 38.7573 224.796 39.6347 224.516 40.68C224.254 41.7067 223.9 42.836 223.452 44.068C223.022 45.2813 222.565 46.5227 222.08 47.792C221.594 49.0613 221.128 50.2933 220.68 51.488C220.25 52.664 219.896 53.7373 219.616 54.708C219.354 55.66 219.224 56.4253 219.224 57.004C219.224 57.8813 219.513 58.32 220.092 58.32C220.652 58.32 221.333 58.0587 222.136 57.536C222.938 57.032 223.788 56.3507 224.684 55.492C225.598 54.6147 226.494 53.6253 227.372 52.524C228.249 51.404 229.042 50.2467 229.752 49.052C230.48 47.8573 231.058 46.6813 231.488 45.524C231.917 44.348 232.132 43.2747 232.132 42.304C232.132 41.6507 232.038 41.0627 231.852 40.54C231.684 40.0173 231.32 39.756 230.76 39.756C230.517 39.756 230.321 39.7093 230.172 39.616C230.041 39.504 229.976 39.4013 229.976 39.308C229.976 39.1213 230.134 39.028 230.452 39.028C230.676 39.028 230.956 39.112 231.292 39.28C231.646 39.4293 231.992 39.672 232.328 40.008C232.682 40.3253 232.981 40.736 233.224 41.24C233.466 41.744 233.588 42.3413 233.588 43.032C233.588 43.8907 233.354 44.8893 232.888 46.028C232.44 47.148 231.824 48.3147 231.04 49.528C230.274 50.7227 229.397 51.8987 228.408 53.056C227.437 54.1947 226.42 55.2307 225.356 56.164C224.292 57.0787 223.246 57.8067 222.22 58.348C221.212 58.908 220.278 59.188 219.42 59.188C218.692 59.188 218.206 58.964 217.964 58.516C217.721 58.068 217.6 57.48 217.6 56.752C217.6 55.6133 217.786 54.372 218.16 53.028C218.552 51.684 219.028 50.2933 219.588 48.856C220.166 47.4 220.736 45.9533 221.296 44.516C221.874 43.0787 222.35 41.6973 222.724 40.372C223.116 39.0467 223.312 37.824 223.312 36.704C223.312 35.4347 222.948 34.576 222.22 34.128C221.51 33.68 220.577 33.456 219.42 33.456C218.281 33.456 217.068 33.6707 215.78 34.1C214.51 34.5293 213.26 35.136 212.028 35.92C210.814 36.704 209.713 37.6467 208.724 38.748C207.734 39.8307 206.941 41.044 206.344 42.388C205.765 43.7133 205.476 45.1413 205.476 46.672C205.476 47.568 205.625 48.408 205.924 49.192C206.241 49.9573 206.745 50.5827 207.436 51.068C208.126 51.5347 209.032 51.768 210.152 51.768C210.992 51.768 211.794 51.5907 212.56 51.236C213.344 50.8813 214.034 50.4053 214.632 49.808C215.229 49.192 215.705 48.5107 216.06 47.764C216.414 47.0173 216.592 46.252 216.592 45.468C216.592 44.8333 216.461 44.2827 216.2 43.816C215.938 43.3307 215.5 43.088 214.884 43.088C214.641 43.088 214.389 43.1253 214.128 43.2C213.866 43.2747 213.689 43.312 213.596 43.312C213.502 43.312 213.456 43.256 213.456 43.144C213.456 43.1067 213.474 43.06 213.512 43.004C213.549 42.948 213.614 42.892 213.708 42.836C213.913 42.724 214.165 42.64 214.464 42.584C214.762 42.5093 215.024 42.472 215.248 42.472C216.069 42.472 216.704 42.7613 217.152 43.34C217.6 43.9187 217.824 44.6187 217.824 45.44C217.824 46.336 217.59 47.204 217.124 48.044C216.657 48.884 216.032 49.64 215.248 50.312C214.482 50.984 213.614 51.516 212.644 51.908C211.692 52.3 210.712 52.496 209.704 52.496C208.453 52.496 207.389 52.188 206.512 51.572C205.653 50.956 205 50.1533 204.552 49.164C204.122 48.156 203.908 47.0827 203.908 45.944C203.908 44.4693 204.197 43.0693 204.776 41.744C205.373 40.4 206.185 39.1867 207.212 38.104C208.238 37.0027 209.405 36.0507 210.712 35.248C212.018 34.4453 213.39 33.8293 214.828 33.4C216.284 32.952 217.73 32.728 219.168 32.728C220.25 32.728 221.221 32.9053 222.08 33.26C222.957 33.6147 223.648 34.184 224.152 34.968C224.674 35.7333 224.936 36.76 224.936 38.048ZM234.531 56.5C233.766 56.5 233.197 56.2293 232.823 55.688C232.469 55.128 232.291 54.456 232.291 53.672C232.291 52.944 232.431 52.188 232.711 51.404C233.01 50.5453 233.421 49.7613 233.943 49.052C234.485 48.3427 235.073 47.7733 235.707 47.344C236.361 46.896 237.005 46.672 237.639 46.672C238.405 46.672 238.965 46.9333 239.319 47.456C239.693 47.9787 239.879 48.6413 239.879 49.444C239.879 50.004 239.786 50.592 239.599 51.208C239.413 51.824 239.161 52.4307 238.843 53.028C239.086 53.2707 239.431 53.392 239.879 53.392C240.402 53.392 240.85 53.224 241.223 52.888C241.597 52.552 241.961 51.9547 242.315 51.096C242.539 51.096 242.651 51.18 242.651 51.348C242.297 52.2067 241.886 52.8413 241.419 53.252C240.971 53.644 240.393 53.8307 239.683 53.812C239.254 53.812 238.899 53.6907 238.619 53.448C238.097 54.3067 237.471 55.0347 236.743 55.632C236.034 56.2107 235.297 56.5 234.531 56.5ZM234.923 55.884C235.353 55.884 235.782 55.7067 236.211 55.352C236.641 54.9787 237.033 54.5587 237.387 54.092C237.742 53.6253 237.994 53.224 238.143 52.888C237.845 52.3467 237.667 51.9453 237.611 51.684C237.574 51.404 237.555 51.1987 237.555 51.068C237.555 50.7133 237.649 50.4427 237.835 50.256C238.022 50.0693 238.209 49.976 238.395 49.976C238.657 49.976 238.881 50.088 239.067 50.312C239.105 50.1067 239.133 49.92 239.151 49.752C239.17 49.5653 239.179 49.388 239.179 49.22C239.179 48.7347 239.086 48.3427 238.899 48.044C238.731 47.7267 238.461 47.568 238.087 47.568C237.695 47.568 237.285 47.736 236.855 48.072C236.426 48.408 236.015 48.856 235.623 49.416C235.25 49.976 234.923 50.6013 234.643 51.292C234.401 51.8707 234.214 52.4213 234.083 52.944C233.953 53.448 233.887 53.9147 233.887 54.344C233.887 54.8107 233.971 55.184 234.139 55.464C234.307 55.744 234.569 55.884 234.923 55.884ZM243.124 56.5C242.919 56.5 242.667 56.4533 242.368 56.36C242.088 56.2667 241.836 56.0987 241.612 55.856C241.407 55.5947 241.304 55.212 241.304 54.708C241.304 54.2227 241.463 53.6627 241.78 53.028C242.097 52.3933 242.377 51.8333 242.62 51.348C242.415 51.348 242.312 51.264 242.312 51.096C242.331 51.04 242.415 50.8627 242.564 50.564C242.713 50.2653 242.891 49.9107 243.096 49.5C243.301 49.0893 243.497 48.6973 243.684 48.324C243.889 47.932 244.048 47.6333 244.16 47.428C244.384 47.0173 244.739 46.812 245.224 46.812H246.96C246.643 47.0547 246.353 47.3253 246.092 47.624C245.849 47.904 245.541 48.4267 245.168 49.192C245.168 49.192 245.103 49.3227 244.972 49.584C244.841 49.8453 244.673 50.1813 244.468 50.592C244.281 50.984 244.085 51.3853 243.88 51.796C243.693 52.2067 243.535 52.552 243.404 52.832C243.161 53.3547 243.003 53.7747 242.928 54.092C242.853 54.3907 242.816 54.6707 242.816 54.932C242.816 55.548 243.021 55.856 243.432 55.856C243.88 55.856 244.421 55.492 245.056 54.764C245.579 54.148 246.092 53.4107 246.596 52.552C247.1 51.6933 247.576 50.8067 248.024 49.892C248.491 48.9773 248.901 48.156 249.256 47.428C249.461 47.0173 249.825 46.812 250.348 46.812H251.888C251.477 47.148 251.057 47.652 250.628 48.324C250.217 48.996 249.76 49.8547 249.256 50.9C249.125 51.18 248.957 51.5347 248.752 51.964C248.547 52.3933 248.36 52.8507 248.192 53.336C248.043 53.8213 247.968 54.3067 247.968 54.792C247.968 55.4453 248.201 55.772 248.668 55.772C249.303 55.772 249.919 55.3333 250.516 54.456C251.113 53.5787 251.701 52.4587 252.28 51.096C252.429 51.096 252.513 51.1053 252.532 51.124C252.569 51.1427 252.597 51.2173 252.616 51.348C252.411 51.852 252.159 52.4027 251.86 53C251.58 53.5787 251.253 54.1387 250.88 54.68C250.525 55.2213 250.124 55.66 249.676 55.996C249.247 56.332 248.771 56.5 248.248 56.5C247.781 56.5 247.399 56.332 247.1 55.996C246.801 55.6413 246.652 55.1467 246.652 54.512C246.652 54.008 246.745 53.4667 246.932 52.888C246.615 53.448 246.251 54.008 245.84 54.568C245.429 55.128 244.991 55.5947 244.524 55.968C244.057 56.3227 243.591 56.5 243.124 56.5ZM252.881 56.612C252.115 56.612 251.49 56.3787 251.005 55.912C250.538 55.4267 250.305 54.9227 250.305 54.4C250.305 53.9707 250.417 53.5787 250.641 53.224C250.846 52.8507 251.126 52.664 251.481 52.664L251.509 52.608C251.919 51.8613 252.311 51.1053 252.685 50.34C253.077 49.556 253.506 48.7253 253.973 47.848C254.365 47.12 254.785 46.5227 255.233 46.056C255.699 45.5893 256.241 45.356 256.857 45.356C257.006 45.356 257.211 45.3933 257.473 45.468C257.734 45.524 257.865 45.6547 257.865 45.86C257.865 46.0093 257.781 46.084 257.613 46.084C257.482 46.084 257.333 46.0467 257.165 45.972C257.015 45.8973 256.894 45.86 256.801 45.86C256.446 45.86 256.147 46.0653 255.905 46.476C255.662 46.8867 255.541 47.3253 255.541 47.792C255.541 48.296 255.625 48.7533 255.793 49.164C255.961 49.556 256.157 49.9387 256.381 50.312C256.605 50.6853 256.801 51.068 256.969 51.46C257.137 51.8333 257.221 52.244 257.221 52.692C257.221 53.588 257.043 54.316 256.689 54.876C256.353 55.4173 255.905 55.828 255.345 56.108H255.373C256.362 56.108 257.174 55.6507 257.809 54.736C258.462 53.8027 259.106 52.5893 259.741 51.096C259.965 51.096 260.077 51.18 260.077 51.348C259.722 52.188 259.33 53.0093 258.901 53.812C258.471 54.6147 257.967 55.2773 257.389 55.8C256.81 56.3227 256.101 56.584 255.261 56.584C254.906 56.584 254.579 56.5467 254.281 56.472C253.851 56.5653 253.385 56.612 252.881 56.612ZM252.461 53.644C252.461 54.092 252.563 54.5213 252.769 54.932C252.974 55.3427 253.347 55.6507 253.889 55.856C254.374 55.576 254.747 55.1467 255.009 54.568C255.289 53.9707 255.429 53.3547 255.429 52.72C255.429 52.1973 255.373 51.6653 255.261 51.124C255.149 50.5827 255.027 50.0507 254.897 49.528C254.785 49.0053 254.729 48.5387 254.729 48.128C254.729 47.9973 254.729 47.8853 254.729 47.792C254.747 47.68 254.766 47.5773 254.785 47.484C254.449 47.988 254.103 48.576 253.749 49.248C253.413 49.92 253.086 50.564 252.769 51.18C252.451 51.796 252.162 52.3 251.901 52.692C252.274 52.748 252.461 53.0653 252.461 53.644ZM251.537 55.044C251.537 55.3427 251.639 55.604 251.845 55.828C252.05 56.052 252.358 56.164 252.769 56.164C252.955 56.164 253.133 56.1453 253.301 56.108C252.909 55.8653 252.591 55.5573 252.349 55.184C252.125 54.8107 252.013 54.3813 252.013 53.896C251.845 54.0827 251.723 54.2787 251.649 54.484C251.574 54.6707 251.537 54.8573 251.537 55.044Z" fill="#CFB164"/>
<path d="M47 67.5H261" stroke="#CFB164" stroke-width="3"/>
</g>
<defs>
<filter id="filter0_d_1_3" x="0" y="0" width="308" height="108" filterUnits="userSpaceOnUse" color-interpolation-filters="sRGB">
<feFlood flood-opacity="0" result="BackgroundImageFix"/>
<feColorMatrix in="SourceAlpha" type="matrix" values="0 0 0 0 0 0 0 0 0 0 0 0 0 0 0 0 0 0 127 0" result="hardAlpha"/>
<feOffset dy="4"/>
<feGaussianBlur stdDeviation="2"/>
<feComposite in2="hardAlpha" operator="out"/>
<feColorMatrix type="matrix" values="0 0 0 0 0 0 0 0 0 0 0 0 0 0 0 0 0 0 0.25 0"/>
<feBlend mode="normal" in2="BackgroundImageFix" result="effect1_dropShadow_1_3"/>
<feBlend mode="normal" in="SourceGraphic" in2="effect1_dropShadow_1_3" result="shape"/>
</filter>
</defs>
</svg>
