<svg width="300" height="100" viewBox="0 0 300 100" fill="none" xmlns="http://www.w3.org/2000/svg">
<g filter="url(#filter0_d_1_3)">
<path d="M70.532 57.676C70.0093 57.676 69.4867 57.5547 68.964 57.312C68.46 57.0693 67.984 56.7147 67.536 56.248C66.8827 55.576 66.3133 54.7733 65.828 53.84C65.3613 52.888 64.96 51.9173 64.624 50.928C64.288 49.92 64.0267 49.0053 63.84 48.184C63.6533 47.344 63.5227 46.7 63.448 46.252C62.7573 47.5773 62.0387 48.8933 61.292 50.2C60.564 51.488 59.6307 52.7573 58.492 54.008C57.4093 55.184 56.224 56.0707 54.936 56.668C53.648 57.284 52.3133 57.592 50.932 57.592C50.5027 57.592 50.064 57.564 49.616 57.508C48.384 57.3587 47.4787 57.004 46.9 56.444C46.3213 55.884 46.032 55.2867 46.032 54.652C46.032 53.9613 46.34 53.336 46.956 52.776C47.572 52.216 48.4493 51.936 49.588 51.936C49.9613 51.936 50.3627 51.9733 50.792 52.048C51.2213 52.1227 51.6693 52.244 52.136 52.412C52.3413 52.4867 52.444 52.5707 52.444 52.664C52.444 52.7387 52.3693 52.776 52.22 52.776C52.1267 52.776 52.052 52.7667 51.996 52.748C51.38 52.524 50.8293 52.412 50.344 52.412C49.56 52.412 48.9627 52.6453 48.552 53.112C48.1413 53.56 47.936 54.0547 47.936 54.596C47.936 55.1187 48.16 55.604 48.608 56.052C49.056 56.5 49.7467 56.724 50.68 56.724C51.856 56.724 52.9387 56.4533 53.928 55.912C54.9173 55.352 55.8413 54.596 56.7 53.644C57.5587 52.6733 58.38 51.5813 59.164 50.368C59.948 49.136 60.7133 47.8573 61.46 46.532C62.7107 44.3107 63.84 42.2947 64.848 40.484C65.8747 38.6547 66.9573 37.1053 68.096 35.836C67.592 35.78 67.0787 35.7427 66.556 35.724C66.0333 35.7053 65.5013 35.696 64.96 35.696C63.784 35.696 62.5613 35.7613 61.292 35.892C60.0413 36.004 58.828 36.1907 57.652 36.452C56.0653 36.788 54.7027 37.292 53.564 37.964C52.4253 38.6173 51.52 39.3547 50.848 40.176C50.1947 40.9787 49.784 41.7907 49.616 42.612C49.56 42.9107 49.532 43.2 49.532 43.48C49.532 44.432 49.8493 45.1693 50.484 45.692C51.1187 46.2147 51.8467 46.476 52.668 46.476C53.1907 46.476 53.7133 46.3733 54.236 46.168C54.7773 45.944 55.2627 45.5987 55.692 45.132C56.0467 44.7587 56.308 44.4133 56.476 44.096C56.644 43.76 56.7373 43.508 56.756 43.34C56.7747 43.0787 56.8307 42.948 56.924 42.948C56.98 42.948 57.0267 42.9947 57.064 43.088C57.12 43.1813 57.1387 43.2747 57.12 43.368C57.0453 43.7973 56.9147 44.2173 56.728 44.628C56.5413 45.0387 56.3173 45.384 56.056 45.664C55.5333 46.2053 54.936 46.6067 54.264 46.868C53.592 47.1293 52.948 47.26 52.332 47.26C51.604 47.26 50.9133 47.1013 50.26 46.784C49.6253 46.4667 49.112 46.0093 48.72 45.412C48.328 44.796 48.132 44.04 48.132 43.144C48.132 42.0987 48.496 41.0347 49.224 39.952C49.952 38.8507 51.044 37.88 52.5 37.04C53.9747 36.2 55.804 35.6213 57.988 35.304C59.0893 35.1547 60.1533 35.0427 61.18 34.968C62.2253 34.8747 63.2333 34.828 64.204 34.828C64.988 34.828 65.7533 34.856 66.5 34.912C67.2467 34.968 67.984 35.0427 68.712 35.136C69.1973 34.632 69.524 34.38 69.692 34.38C69.8227 34.38 69.888 34.4827 69.888 34.688C69.888 34.7627 69.8787 34.856 69.86 34.968C69.8413 35.08 69.8133 35.192 69.776 35.304C70.28 35.3787 70.7653 35.4627 71.232 35.556C71.7173 35.6307 72.1467 35.724 72.52 35.836C73.9947 36.2467 75.068 36.788 75.74 37.46C76.4307 38.1133 76.776 38.8227 76.776 39.588C76.776 40.4093 76.4027 41.2307 75.656 42.052C74.928 42.8733 73.892 43.6013 72.548 44.236C71.2227 44.8707 69.664 45.3373 67.872 45.636C67.2933 45.7293 66.78 45.7947 66.332 45.832C65.9027 45.8693 65.5293 45.8973 65.212 45.916C65.2493 46.1027 65.3333 46.4947 65.464 47.092C65.5947 47.6893 65.7813 48.3987 66.024 49.22C66.2667 50.0227 66.5747 50.872 66.948 51.768C67.34 52.664 67.8067 53.5133 68.348 54.316C68.7773 54.9507 69.216 55.4733 69.664 55.884C70.112 56.2947 70.588 56.5 71.092 56.5C71.4093 56.5 71.736 56.416 72.072 56.248C72.4267 56.08 72.7907 55.8093 73.164 55.436C73.612 54.988 74.0227 54.484 74.396 53.924C74.7693 53.364 75.0867 52.832 75.348 52.328C75.6093 51.8053 75.8053 51.3947 75.936 51.096C76.048 51.096 76.132 51.1053 76.188 51.124C76.244 51.1427 76.272 51.2173 76.272 51.348C76.1973 51.5347 76.0667 51.8333 75.88 52.244C75.6933 52.636 75.4693 53.084 75.208 53.588C74.9653 54.0733 74.6947 54.5587 74.396 55.044C74.0973 55.5293 73.7987 55.94 73.5 56.276C73.0707 56.7427 72.5853 57.088 72.044 57.312C71.5213 57.5547 71.0173 57.676 70.532 57.676ZM64.036 45.16C64.5773 45.0667 65.156 45.0013 65.772 44.964C66.388 44.9267 66.9947 44.8707 67.592 44.796C68.5627 44.6653 69.4773 44.4133 70.336 44.04C71.1947 43.648 71.9507 43.1813 72.604 42.64C73.276 42.0987 73.7987 41.5293 74.172 40.932C74.5453 40.316 74.732 39.728 74.732 39.168C74.732 37.8987 73.8827 37.0213 72.184 36.536C71.848 36.4427 71.4093 36.3493 70.868 36.256C70.3453 36.1627 69.8693 36.0787 69.44 36.004C68.544 37.5347 67.62 39.0373 66.668 40.512C65.7347 41.9867 64.8573 43.536 64.036 45.16ZM77.625 56.5C76.8596 56.5 76.2903 56.2293 75.917 55.688C75.5623 55.128 75.385 54.456 75.385 53.672C75.385 52.944 75.525 52.188 75.805 51.404C76.1036 50.5453 76.5143 49.7613 77.037 49.052C77.5783 48.3427 78.1663 47.7733 78.801 47.344C79.4543 46.896 80.0983 46.672 80.733 46.672C81.4983 46.672 82.0583 46.9333 82.413 47.456C82.7863 47.9787 82.973 48.6413 82.973 49.444C82.973 50.004 82.8796 50.592 82.693 51.208C82.5063 51.824 82.2543 52.4307 81.937 53.028C82.1796 53.2707 82.525 53.392 82.973 53.392C83.4956 53.392 83.9436 53.224 84.317 52.888C84.6903 52.552 85.0543 51.9547 85.409 51.096C85.633 51.096 85.745 51.18 85.745 51.348C85.3903 52.2067 84.9796 52.8413 84.513 53.252C84.065 53.644 83.4863 53.8307 82.777 53.812C82.3476 53.812 81.993 53.6907 81.713 53.448C81.1903 54.3067 80.565 55.0347 79.837 55.632C79.1276 56.2107 78.3903 56.5 77.625 56.5ZM78.017 55.884C78.4463 55.884 78.8756 55.7067 79.305 55.352C79.7343 54.9787 80.1263 54.5587 80.481 54.092C80.8356 53.6253 81.0876 53.224 81.237 52.888C80.9383 52.3467 80.761 51.9453 80.705 51.684C80.6676 51.404 80.649 51.1987 80.649 51.068C80.649 50.7133 80.7423 50.4427 80.929 50.256C81.1156 50.0693 81.3023 49.976 81.489 49.976C81.7503 49.976 81.9743 50.088 82.161 50.312C82.1983 50.1067 82.2263 49.92 82.245 49.752C82.2636 49.5653 82.273 49.388 82.273 49.22C82.273 48.7347 82.1796 48.3427 81.993 48.044C81.825 47.7267 81.5543 47.568 81.181 47.568C80.789 47.568 80.3783 47.736 79.949 48.072C79.5196 48.408 79.109 48.856 78.717 49.416C78.3436 49.976 78.017 50.6013 77.737 51.292C77.4943 51.8707 77.3076 52.4213 77.177 52.944C77.0463 53.448 76.981 53.9147 76.981 54.344C76.981 54.8107 77.065 55.184 77.233 55.464C77.401 55.744 77.6623 55.884 78.017 55.884ZM81.5419 65.432C80.5712 65.432 79.8806 65.236 79.4699 64.844C79.0592 64.4707 78.8539 64.0227 78.8539 63.5C78.8539 62.6973 79.1526 61.9507 79.7499 61.26C80.3286 60.588 81.0472 60.0467 81.9059 59.636C82.8766 59.188 83.9779 58.824 85.2099 58.544C86.4606 58.264 87.6552 57.956 88.7939 57.62C89.1486 57.004 89.4752 56.304 89.7739 55.52C90.0726 54.7173 90.3432 53.9427 90.5859 53.196C90.8286 52.4307 91.0246 51.8053 91.1739 51.32C90.9499 51.7307 90.6606 52.2347 90.3059 52.832C89.9699 53.4107 89.5872 53.98 89.1579 54.54C88.7286 55.1 88.2619 55.5667 87.7579 55.94C87.2726 56.3133 86.7592 56.5 86.2179 56.5C86.0126 56.5 85.7606 56.4533 85.4619 56.36C85.1819 56.2667 84.9299 56.0987 84.7059 55.856C84.5006 55.5947 84.3979 55.212 84.3979 54.708C84.3979 54.2227 84.5472 53.6907 84.8459 53.112C85.1446 52.5147 85.4432 51.9267 85.7419 51.348C85.6486 51.348 85.5646 51.3387 85.4899 51.32C85.4339 51.3013 85.4059 51.2267 85.4059 51.096C85.4619 50.984 85.5739 50.7413 85.7419 50.368C85.9099 49.9947 86.0966 49.584 86.3019 49.136C86.5259 48.688 86.7219 48.296 86.8899 47.96C87.0952 47.5307 87.3192 47.232 87.5619 47.064C87.8232 46.896 88.0752 46.812 88.3179 46.812H90.0539C89.9232 46.924 89.7552 47.0547 89.5499 47.204C89.3632 47.3347 89.1859 47.54 89.0179 47.82C88.5139 48.6787 88.0752 49.5093 87.7019 50.312C87.3286 51.096 86.9272 51.936 86.4979 52.832C86.2926 53.2613 86.1432 53.6533 86.0499 54.008C85.9566 54.3627 85.9099 54.6707 85.9099 54.932C85.9099 55.548 86.1152 55.856 86.5259 55.856C86.9739 55.856 87.5152 55.492 88.1499 54.764C88.6726 54.148 89.1952 53.42 89.7179 52.58C90.2592 51.7213 90.7726 50.844 91.2579 49.948C91.7619 49.0333 92.2006 48.1933 92.5739 47.428C92.7792 47.0173 93.1432 46.812 93.6659 46.812H95.2059C94.6646 47.1853 94.2446 47.6707 93.9459 48.268C93.6659 48.8653 93.3486 49.6307 92.9939 50.564C92.6019 51.5907 92.2286 52.6547 91.8739 53.756C91.5192 54.8573 91.1272 55.9867 90.6979 57.144C91.6126 56.8267 92.3779 56.416 92.9939 55.912C93.6099 55.408 94.1512 54.764 94.6179 53.98C95.1032 53.1773 95.5886 52.216 96.0739 51.096C96.2979 51.096 96.4099 51.18 96.4099 51.348C95.9992 52.2067 95.6259 52.9627 95.2899 53.616C94.9539 54.2693 94.5806 54.848 94.1699 55.352C93.7592 55.8373 93.2459 56.2853 92.6299 56.696C92.0139 57.1253 91.2206 57.536 90.2499 57.928C89.8019 58.7307 89.2886 59.5613 88.7099 60.42C88.1499 61.2973 87.5059 62.1093 86.7779 62.856C86.0686 63.6213 85.2752 64.2373 84.3979 64.704C83.5392 65.1893 82.5872 65.432 81.5419 65.432ZM80.8699 64.872C81.4859 64.872 82.1206 64.6853 82.7739 64.312C83.4272 63.9387 84.0619 63.4627 84.6779 62.884C85.2939 62.324 85.8539 61.7453 86.3579 61.148C86.8806 60.5693 87.3006 60.056 87.6179 59.608C87.7112 59.4773 87.8139 59.3093 87.9259 59.104C88.0379 58.8987 88.1499 58.7027 88.2619 58.516C87.3472 58.7587 86.3392 59.02 85.2379 59.3C84.1552 59.5987 83.2126 59.9253 82.4099 60.28C81.5139 60.6533 80.8139 61.1853 80.3099 61.876C79.7872 62.5667 79.5259 63.1827 79.5259 63.724C79.5259 64.06 79.6379 64.3307 79.8619 64.536C80.0672 64.76 80.4032 64.872 80.8699 64.872ZM102.146 56.584C101.717 56.584 101.334 56.4627 100.998 56.22C100.681 55.9773 100.522 55.4827 100.522 54.736C100.522 54.4187 100.541 54.12 100.578 53.84C100.634 53.56 100.699 53.2613 100.774 52.944C100.606 53.224 100.373 53.5693 100.074 53.98C99.7753 54.3907 99.4393 54.792 99.066 55.184C98.7113 55.576 98.338 55.9027 97.946 56.164C97.5726 56.4253 97.218 56.556 96.882 56.556C96.3966 56.556 96.0046 56.3413 95.706 55.912C95.4073 55.464 95.258 54.8853 95.258 54.176C95.258 53.4107 95.4353 52.5893 95.79 51.712C96.1446 50.8347 96.63 49.9947 97.246 49.192C97.862 48.3893 98.5713 47.736 99.374 47.232C100.177 46.728 101.017 46.476 101.894 46.476C102.323 46.476 102.734 46.5507 103.126 46.7C103.518 46.8307 103.863 47.0547 104.162 47.372C104.293 47.5027 104.358 47.652 104.358 47.82C104.358 47.932 104.311 48.0253 104.218 48.1C104.125 48.1747 104.003 48.1933 103.854 48.156C103.649 47.5027 103.21 47.176 102.538 47.176C102.221 47.176 101.857 47.2787 101.446 47.484C100.942 47.7453 100.401 48.1653 99.822 48.744C99.262 49.304 98.73 49.948 98.226 50.676C97.7406 51.3853 97.3393 52.104 97.022 52.832C96.7046 53.56 96.546 54.2227 96.546 54.82C96.546 55.436 96.7793 55.744 97.246 55.744C97.6566 55.744 98.0766 55.548 98.506 55.156C98.954 54.764 99.374 54.2787 99.766 53.7C100.177 53.1027 100.55 52.5147 100.886 51.936C101.222 51.3573 101.483 50.8907 101.67 50.536C101.95 50.032 102.211 49.612 102.454 49.276C102.697 48.94 103.042 48.772 103.49 48.772C103.695 48.772 103.901 48.8 104.106 48.856C104.311 48.912 104.526 48.9213 104.75 48.884C104.19 49.444 103.695 50.1067 103.266 50.872C102.855 51.6373 102.538 52.3933 102.314 53.14C102.09 53.868 101.978 54.484 101.978 54.988C101.978 55.548 102.165 55.828 102.538 55.828C102.837 55.828 103.154 55.66 103.49 55.324C103.845 54.988 104.181 54.568 104.498 54.064C104.834 53.5413 105.142 53.0187 105.422 52.496C105.702 51.9547 105.926 51.488 106.094 51.096C106.187 51.096 106.262 51.1053 106.318 51.124C106.393 51.1427 106.43 51.2173 106.43 51.348C106.411 51.4227 106.374 51.5067 106.318 51.6C106.281 51.6747 106.215 51.8147 106.122 52.02C105.973 52.3187 105.767 52.72 105.506 53.224C105.245 53.728 104.937 54.2413 104.582 54.764C104.227 55.268 103.845 55.6973 103.434 56.052C103.023 56.4067 102.594 56.584 102.146 56.584ZM107.421 56.584C106.73 56.584 106.217 56.3787 105.881 55.968C105.564 55.5387 105.405 55.0347 105.405 54.456C105.405 53.8587 105.489 53.2427 105.657 52.608C105.825 51.9733 105.974 51.4413 106.105 51.012C106.404 49.9667 106.777 48.856 107.225 47.68C107.692 46.4853 108.196 45.3187 108.737 44.18C109.297 43.0227 109.848 41.9867 110.389 41.072C110.818 40.344 111.276 39.8027 111.761 39.448C112.265 39.0747 112.704 38.888 113.077 38.888C113.376 38.888 113.609 39 113.777 39.224C113.964 39.4293 114.057 39.7467 114.057 40.176C114.057 40.4747 114.001 40.8293 113.889 41.24C113.796 41.6507 113.628 42.1173 113.385 42.64C112.732 44.096 111.948 45.552 111.033 47.008C110.137 48.464 108.998 49.8267 107.617 51.096C107.393 51.6187 107.206 52.1787 107.057 52.776C106.908 53.3733 106.833 53.8587 106.833 54.232C106.833 55.3893 107.225 55.968 108.009 55.968C108.606 55.968 109.269 55.5387 109.997 54.68C110.725 53.8027 111.416 52.608 112.069 51.096C112.144 51.096 112.218 51.1147 112.293 51.152C112.368 51.1707 112.405 51.236 112.405 51.348C112.2 51.852 111.938 52.412 111.621 53.028C111.322 53.6253 110.968 54.1947 110.557 54.736C110.165 55.2773 109.708 55.7253 109.185 56.08C108.662 56.416 108.074 56.584 107.421 56.584ZM107.841 50.2C108.513 49.5093 109.166 48.716 109.801 47.82C110.436 46.9053 111.024 45.9627 111.565 44.992C112.125 44.0027 112.592 43.0693 112.965 42.192C113.096 41.912 113.198 41.604 113.273 41.268C113.366 40.932 113.413 40.652 113.413 40.428C113.413 40.1667 113.348 40.036 113.217 40.036C113.142 40.036 113.03 40.1107 112.881 40.26C112.732 40.3907 112.536 40.624 112.293 40.96C111.938 41.4267 111.546 42.0613 111.117 42.864C110.706 43.6667 110.286 44.5253 109.857 45.44C109.428 46.3547 109.036 47.2413 108.681 48.1C108.326 48.94 108.046 49.64 107.841 50.2ZM140.231 57.676C139.709 57.676 139.186 57.5547 138.663 57.312C138.159 57.0693 137.683 56.7147 137.235 56.248C136.582 55.576 136.013 54.7733 135.527 53.84C135.061 52.888 134.659 51.9173 134.323 50.928C133.987 49.92 133.726 49.0053 133.539 48.184C133.353 47.344 133.222 46.7 133.147 46.252C132.457 47.5773 131.738 48.8933 130.991 50.2C130.263 51.488 129.33 52.7573 128.191 54.008C127.109 55.184 125.923 56.0707 124.635 56.668C123.347 57.284 122.013 57.592 120.631 57.592C120.202 57.592 119.763 57.564 119.315 57.508C118.083 57.3587 117.178 57.004 116.599 56.444C116.021 55.884 115.731 55.2867 115.731 54.652C115.731 53.9613 116.039 53.336 116.655 52.776C117.271 52.216 118.149 51.936 119.287 51.936C119.661 51.936 120.062 51.9733 120.491 52.048C120.921 52.1227 121.369 52.244 121.835 52.412C122.041 52.4867 122.143 52.5707 122.143 52.664C122.143 52.7387 122.069 52.776 121.919 52.776C121.826 52.776 121.751 52.7667 121.695 52.748C121.079 52.524 120.529 52.412 120.043 52.412C119.259 52.412 118.662 52.6453 118.251 53.112C117.841 53.56 117.635 54.0547 117.635 54.596C117.635 55.1187 117.859 55.604 118.307 56.052C118.755 56.5 119.446 56.724 120.379 56.724C121.555 56.724 122.638 56.4533 123.627 55.912C124.617 55.352 125.541 54.596 126.399 53.644C127.258 52.6733 128.079 51.5813 128.863 50.368C129.647 49.136 130.413 47.8573 131.159 46.532C132.41 44.3107 133.539 42.2947 134.547 40.484C135.574 38.6547 136.657 37.1053 137.795 35.836C137.291 35.78 136.778 35.7427 136.255 35.724C135.733 35.7053 135.201 35.696 134.659 35.696C133.483 35.696 132.261 35.7613 130.991 35.892C129.741 36.004 128.527 36.1907 127.351 36.452C125.765 36.788 124.402 37.292 123.263 37.964C122.125 38.6173 121.219 39.3547 120.547 40.176C119.894 40.9787 119.483 41.7907 119.315 42.612C119.259 42.9107 119.231 43.2 119.231 43.48C119.231 44.432 119.549 45.1693 120.183 45.692C120.818 46.2147 121.546 46.476 122.367 46.476C122.89 46.476 123.413 46.3733 123.935 46.168C124.477 45.944 124.962 45.5987 125.391 45.132C125.746 44.7587 126.007 44.4133 126.175 44.096C126.343 43.76 126.437 43.508 126.455 43.34C126.474 43.0787 126.53 42.948 126.623 42.948C126.679 42.948 126.726 42.9947 126.763 43.088C126.819 43.1813 126.838 43.2747 126.819 43.368C126.745 43.7973 126.614 44.2173 126.427 44.628C126.241 45.0387 126.017 45.384 125.755 45.664C125.233 46.2053 124.635 46.6067 123.963 46.868C123.291 47.1293 122.647 47.26 122.031 47.26C121.303 47.26 120.613 47.1013 119.959 46.784C119.325 46.4667 118.811 46.0093 118.419 45.412C118.027 44.796 117.831 44.04 117.831 43.144C117.831 42.0987 118.195 41.0347 118.923 39.952C119.651 38.8507 120.743 37.88 122.199 37.04C123.674 36.2 125.503 35.6213 127.687 35.304C128.789 35.1547 129.853 35.0427 130.879 34.968C131.925 34.8747 132.933 34.828 133.903 34.828C134.687 34.828 135.453 34.856 136.199 34.912C136.946 34.968 137.683 35.0427 138.411 35.136C138.897 34.632 139.223 34.38 139.391 34.38C139.522 34.38 139.587 34.4827 139.587 34.688C139.587 34.7627 139.578 34.856 139.559 34.968C139.541 35.08 139.513 35.192 139.475 35.304C139.979 35.3787 140.465 35.4627 140.931 35.556C141.417 35.6307 141.846 35.724 142.219 35.836C143.694 36.2467 144.767 36.788 145.439 37.46C146.13 38.1133 146.475 38.8227 146.475 39.588C146.475 40.4093 146.102 41.2307 145.355 42.052C144.627 42.8733 143.591 43.6013 142.247 44.236C140.922 44.8707 139.363 45.3373 137.571 45.636C136.993 45.7293 136.479 45.7947 136.031 45.832C135.602 45.8693 135.229 45.8973 134.911 45.916C134.949 46.1027 135.033 46.4947 135.163 47.092C135.294 47.6893 135.481 48.3987 135.723 49.22C135.966 50.0227 136.274 50.872 136.647 51.768C137.039 52.664 137.506 53.5133 138.047 54.316C138.477 54.9507 138.915 55.4733 139.363 55.884C139.811 56.2947 140.287 56.5 140.791 56.5C141.109 56.5 141.435 56.416 141.771 56.248C142.126 56.08 142.49 55.8093 142.863 55.436C143.311 54.988 143.722 54.484 144.095 53.924C144.469 53.364 144.786 52.832 145.047 52.328C145.309 51.8053 145.505 51.3947 145.635 51.096C145.747 51.096 145.831 51.1053 145.887 51.124C145.943 51.1427 145.971 51.2173 145.971 51.348C145.897 51.5347 145.766 51.8333 145.579 52.244C145.393 52.636 145.169 53.084 144.907 53.588C144.665 54.0733 144.394 54.5587 144.095 55.044C143.797 55.5293 143.498 55.94 143.199 56.276C142.77 56.7427 142.285 57.088 141.743 57.312C141.221 57.5547 140.717 57.676 140.231 57.676ZM133.735 45.16C134.277 45.0667 134.855 45.0013 135.471 44.964C136.087 44.9267 136.694 44.8707 137.291 44.796C138.262 44.6653 139.177 44.4133 140.035 44.04C140.894 43.648 141.65 43.1813 142.303 42.64C142.975 42.0987 143.498 41.5293 143.871 40.932C144.245 40.316 144.431 39.728 144.431 39.168C144.431 37.8987 143.582 37.0213 141.883 36.536C141.547 36.4427 141.109 36.3493 140.567 36.256C140.045 36.1627 139.569 36.0787 139.139 36.004C138.243 37.5347 137.319 39.0373 136.367 40.512C135.434 41.9867 134.557 43.536 133.735 45.16ZM147.66 56.612C146.97 56.612 146.344 56.388 145.784 55.94C145.243 55.492 144.972 54.8107 144.972 53.896C144.972 53.056 145.178 52.16 145.588 51.208C145.999 50.2373 146.522 49.388 147.156 48.66C147.698 48.0253 148.304 47.5027 148.976 47.092C149.648 46.6813 150.283 46.476 150.88 46.476C151.291 46.476 151.646 46.588 151.944 46.812C152.262 47.0547 152.42 47.4 152.42 47.848C152.42 48.3147 152.243 48.828 151.888 49.388C151.534 49.948 151.03 50.4707 150.376 50.956C150.096 51.1613 149.742 51.3573 149.312 51.544C148.883 51.7307 148.454 51.8893 148.024 52.02C147.595 52.132 147.24 52.188 146.96 52.188C146.867 52.412 146.774 52.7107 146.68 53.084C146.606 53.4573 146.568 53.84 146.568 54.232C146.568 54.6987 146.662 55.1187 146.848 55.492C147.035 55.8653 147.38 56.052 147.884 56.052C148.538 56.052 149.21 55.828 149.9 55.38C150.591 54.932 151.244 54.3813 151.86 53.728C152.495 53.056 153.018 52.3933 153.428 51.74C153.652 51.2547 153.886 50.7787 154.128 50.312C154.371 49.8267 154.614 49.3507 154.856 48.884C155.23 48.212 155.547 47.7453 155.808 47.484C156.07 47.204 156.415 47.064 156.844 47.064C156.994 47.064 157.152 47.092 157.32 47.148C157.488 47.1853 157.656 47.204 157.824 47.204C157.936 47.204 158.02 47.1947 158.076 47.176C157.815 47.3253 157.47 47.6987 157.04 48.296C156.63 48.8747 156.21 49.5467 155.78 50.312C155.351 51.0773 154.968 51.796 154.632 52.468C154.987 52.0387 155.36 51.6093 155.752 51.18C156.144 50.7507 156.574 50.34 157.04 49.948C157.488 49.556 158.02 49.1547 158.636 48.744C159.271 48.3147 159.887 47.96 160.484 47.68C161.082 47.4 161.558 47.26 161.912 47.26C162.043 47.26 162.136 47.2693 162.192 47.288C162.192 47.288 162.09 47.4747 161.884 47.848C161.679 48.2027 161.418 48.6787 161.1 49.276C160.802 49.8547 160.494 50.48 160.176 51.152C159.859 51.8053 159.57 52.44 159.308 53.056C159.066 53.6533 158.907 54.1573 158.832 54.568C158.776 54.8107 158.748 55.0347 158.748 55.24C158.748 55.5387 158.804 55.7347 158.916 55.828C159.028 55.9213 159.15 55.968 159.28 55.968C159.635 55.968 159.999 55.8093 160.372 55.492C160.746 55.1747 161.1 54.764 161.436 54.26C161.791 53.756 162.118 53.224 162.416 52.664C162.715 52.104 162.967 51.5813 163.172 51.096C163.396 51.096 163.508 51.18 163.508 51.348C163.303 51.852 163.042 52.412 162.724 53.028C162.426 53.6253 162.08 54.204 161.688 54.764C161.315 55.3053 160.895 55.7533 160.428 56.108C159.962 56.4627 159.458 56.64 158.916 56.64C158.543 56.64 158.151 56.5093 157.74 56.248C157.348 55.9867 157.152 55.5013 157.152 54.792C157.152 54.5867 157.171 54.372 157.208 54.148C157.246 53.9053 157.311 53.644 157.404 53.364C157.554 52.9907 157.731 52.5893 157.936 52.16C158.142 51.7307 158.478 51.1427 158.944 50.396C159.075 50.1907 159.15 50.032 159.168 49.92C159.206 49.808 159.224 49.7147 159.224 49.64C159.224 49.416 159.122 49.304 158.916 49.304C158.748 49.304 158.496 49.3973 158.16 49.584C157.843 49.7707 157.442 50.0973 156.956 50.564C156.49 51.012 155.93 51.6467 155.276 52.468C154.642 53.2893 153.904 54.5027 153.064 56.108C152.934 56.3507 152.784 56.4813 152.616 56.5C152.467 56.5187 152.252 56.5373 151.972 56.556C151.786 56.5747 151.608 56.5933 151.44 56.612C151.272 56.6307 151.132 56.6773 151.02 56.752C151.244 56.304 151.459 55.856 151.664 55.408C151.888 54.96 152.103 54.5213 152.308 54.092C151.674 54.7827 150.955 55.38 150.152 55.884C149.35 56.3693 148.519 56.612 147.66 56.612ZM147.156 51.684C147.418 51.684 147.856 51.5907 148.472 51.404C149.088 51.1987 149.648 50.8813 150.152 50.452C150.638 50.0227 151.011 49.556 151.272 49.052C151.534 48.5293 151.664 48.0907 151.664 47.736C151.664 47.3253 151.515 47.12 151.216 47.12C150.992 47.12 150.684 47.2693 150.292 47.568C149.9 47.8667 149.415 48.3707 148.836 49.08C148.482 49.528 148.146 50.0133 147.828 50.536C147.511 51.0587 147.287 51.4413 147.156 51.684ZM169.584 56.5C168.949 56.5 168.482 56.2853 168.184 55.856C167.885 55.4267 167.736 54.9227 167.736 54.344C167.736 54.176 167.745 54.008 167.764 53.84C167.782 53.6533 167.82 53.4667 167.876 53.28C167.614 53.6907 167.306 54.148 166.952 54.652C166.616 55.1373 166.224 55.5667 165.776 55.94C165.346 56.2947 164.861 56.472 164.32 56.472C164.077 56.472 163.797 56.416 163.48 56.304C163.181 56.192 162.91 55.9773 162.668 55.66C162.444 55.3427 162.332 54.876 162.332 54.26C162.332 53.4573 162.509 52.608 162.864 51.712C163.218 50.816 163.704 49.976 164.32 49.192C164.936 48.3893 165.636 47.7453 166.42 47.26C167.204 46.756 168.016 46.504 168.856 46.504C169.528 46.504 170.162 46.6813 170.76 47.036C171.04 46.5133 171.338 45.9347 171.656 45.3C171.973 44.6467 172.29 44.0027 172.608 43.368C172.925 42.7333 173.205 42.1547 173.448 41.632C173.69 41.0907 173.877 40.68 174.008 40.4C174.288 39.7467 174.549 39.336 174.792 39.168C175.053 38.9813 175.361 38.888 175.716 38.888C175.921 38.888 176.145 38.916 176.388 38.972C176.649 39.0093 176.901 39.0187 177.144 39C177.05 39.0933 176.836 39.4013 176.5 39.924C176.164 40.4467 175.753 41.128 175.268 41.968C174.782 42.7893 174.26 43.6947 173.7 44.684C173.158 45.6733 172.617 46.6907 172.076 47.736C171.553 48.7627 171.068 49.752 170.62 50.704C170.172 51.656 169.817 52.496 169.556 53.224C169.294 53.952 169.164 54.5027 169.164 54.876C169.164 55.1187 169.22 55.3333 169.332 55.52C169.444 55.688 169.63 55.772 169.892 55.772C170.246 55.772 170.61 55.5947 170.984 55.24C171.357 54.8853 171.712 54.4467 172.048 53.924C172.402 53.3827 172.71 52.86 172.972 52.356C173.252 51.8333 173.457 51.4133 173.588 51.096C173.812 51.096 173.924 51.18 173.924 51.348C173.756 51.74 173.532 52.2253 173.252 52.804C172.972 53.3827 172.645 53.952 172.272 54.512C171.898 55.072 171.478 55.548 171.012 55.94C170.564 56.3133 170.088 56.5 169.584 56.5ZM164.516 55.66C164.777 55.66 165.104 55.52 165.496 55.24C165.888 54.9413 166.308 54.4747 166.756 53.84C167.278 53.0933 167.876 52.16 168.548 51.04C169.22 49.92 169.882 48.7347 170.536 47.484C170.405 47.372 170.265 47.288 170.116 47.232C169.966 47.176 169.761 47.148 169.5 47.148C169.07 47.148 168.594 47.3347 168.072 47.708C167.568 48.0627 167.054 48.5293 166.532 49.108C166.028 49.6867 165.561 50.312 165.132 50.984C164.721 51.656 164.385 52.3093 164.124 52.944C163.881 53.56 163.76 54.092 163.76 54.54C163.76 55.2867 164.012 55.66 164.516 55.66ZM175.606 56.612C174.915 56.612 174.29 56.388 173.73 55.94C173.188 55.492 172.918 54.8107 172.918 53.896C172.918 53.1307 173.086 52.3187 173.422 51.46C173.776 50.6013 174.234 49.7987 174.794 49.052C175.372 48.2867 176.007 47.6707 176.698 47.204C177.407 46.7187 178.116 46.476 178.826 46.476C179.18 46.476 179.526 46.5787 179.862 46.784C180.198 46.9893 180.366 47.344 180.366 47.848C180.366 48.3147 180.188 48.828 179.834 49.388C179.479 49.948 178.975 50.4707 178.322 50.956C178.042 51.1613 177.687 51.3573 177.258 51.544C176.828 51.7307 176.399 51.8893 175.97 52.02C175.54 52.132 175.186 52.188 174.906 52.188C174.812 52.412 174.719 52.7107 174.626 53.084C174.551 53.4573 174.514 53.84 174.514 54.232C174.514 54.6987 174.607 55.1187 174.794 55.492C174.98 55.8653 175.326 56.052 175.83 56.052C176.446 56.052 177.015 55.8747 177.538 55.52C178.079 55.1653 178.555 54.7173 178.966 54.176C179.395 53.6347 179.759 53.084 180.058 52.524C180.356 51.964 180.59 51.488 180.758 51.096C180.982 51.096 181.094 51.18 181.094 51.348C180.851 51.8707 180.571 52.44 180.254 53.056C179.955 53.672 179.591 54.2507 179.162 54.792C178.751 55.3147 178.247 55.7533 177.65 56.108C177.071 56.444 176.39 56.612 175.606 56.612ZM175.102 51.684C175.363 51.684 175.802 51.5907 176.418 51.404C177.034 51.1987 177.594 50.8813 178.098 50.452C178.583 50.0227 178.956 49.556 179.218 49.052C179.479 48.5293 179.61 48.0907 179.61 47.736C179.61 47.3253 179.46 47.12 179.162 47.12C178.938 47.12 178.63 47.2693 178.238 47.568C177.846 47.8667 177.36 48.3707 176.782 49.08C176.427 49.528 176.091 50.0133 175.774 50.536C175.456 51.0587 175.232 51.4413 175.102 51.684ZM180.754 51.096C180.884 50.7973 181.024 50.4893 181.174 50.172C181.323 49.836 181.538 49.416 181.818 48.912C182.154 48.3147 182.508 47.876 182.882 47.596C183.255 47.2973 183.619 47.1013 183.974 47.008C184.328 46.9147 184.618 46.868 184.842 46.868C185.308 46.868 185.719 46.9333 186.074 47.064C186.428 47.1947 186.746 47.3347 187.026 47.484C187.324 47.6147 187.614 47.68 187.894 47.68C188.248 47.68 188.51 47.5867 188.678 47.4C188.846 47.2133 188.995 47.12 189.126 47.12C189.256 47.12 189.368 47.176 189.462 47.288C189.555 47.4 189.602 47.54 189.602 47.708C189.602 47.9507 189.499 48.128 189.294 48.24C189.088 48.352 188.743 48.5387 188.258 48.8C187.735 49.08 187.268 49.4813 186.858 50.004C186.447 50.5267 186.046 51.0867 185.654 51.684C185.28 52.2813 184.87 52.8693 184.422 53.448C183.974 54.008 183.451 54.484 182.854 54.876C183.563 54.988 184.216 55.1093 184.814 55.24C185.411 55.3707 185.934 55.436 186.382 55.436C186.494 55.436 186.587 55.436 186.662 55.436C186.755 55.4173 186.848 55.3987 186.942 55.38C187.502 55.2307 187.987 54.932 188.398 54.484C188.827 54.0173 189.2 53.4853 189.518 52.888C189.835 52.2907 190.115 51.6933 190.358 51.096C190.582 51.096 190.694 51.18 190.694 51.348C190.358 52.188 189.956 53.0187 189.49 53.84C189.023 54.6613 188.5 55.3427 187.922 55.884C187.343 56.4253 186.708 56.696 186.018 56.696C185.196 56.696 184.468 56.6213 183.834 56.472C183.199 56.3227 182.667 56.248 182.238 56.248C181.883 56.248 181.538 56.3413 181.202 56.528C180.884 56.7333 180.539 56.836 180.166 56.836C179.83 56.836 179.662 56.696 179.662 56.416C179.662 56.2293 179.708 56.0707 179.802 55.94C179.858 55.828 180.054 55.7067 180.39 55.576C180.726 55.4267 181.071 55.2867 181.426 55.156C181.799 55.0067 182.051 54.8947 182.182 54.82C182.518 54.652 182.882 54.3347 183.274 53.868C183.684 53.3827 184.104 52.8413 184.534 52.244C184.963 51.628 185.383 51.0307 185.794 50.452C186.204 49.8733 186.596 49.388 186.97 48.996C186.634 48.9213 186.251 48.8373 185.822 48.744C185.392 48.6507 184.991 48.604 184.618 48.604C184.076 48.604 183.61 48.66 183.218 48.772C182.826 48.8653 182.462 49.108 182.126 49.5C181.808 49.892 181.463 50.508 181.09 51.348C180.866 51.348 180.754 51.264 180.754 51.096ZM192.283 50.62C192.19 50.62 192.143 50.5827 192.143 50.508C192.143 50.3773 192.19 50.228 192.283 50.06C192.395 49.8733 192.601 49.78 192.899 49.78H199.535C199.629 49.78 199.675 49.8173 199.675 49.892C199.675 50.0973 199.619 50.2747 199.507 50.424C199.395 50.5547 199.181 50.62 198.863 50.62H192.283ZM220.936 38.048C220.936 38.7573 220.796 39.6347 220.516 40.68C220.254 41.7067 219.9 42.836 219.452 44.068C219.022 45.2813 218.565 46.5227 218.08 47.792C217.594 49.0613 217.128 50.2933 216.68 51.488C216.25 52.664 215.896 53.7373 215.616 54.708C215.354 55.66 215.224 56.4253 215.224 57.004C215.224 57.8813 215.513 58.32 216.092 58.32C216.652 58.32 217.333 58.0587 218.136 57.536C218.938 57.032 219.788 56.3507 220.684 55.492C221.598 54.6147 222.494 53.6253 223.372 52.524C224.249 51.404 225.042 50.2467 225.752 49.052C226.48 47.8573 227.058 46.6813 227.488 45.524C227.917 44.348 228.132 43.2747 228.132 42.304C228.132 41.6507 228.038 41.0627 227.852 40.54C227.684 40.0173 227.32 39.756 226.76 39.756C226.517 39.756 226.321 39.7093 226.172 39.616C226.041 39.504 225.976 39.4013 225.976 39.308C225.976 39.1213 226.134 39.028 226.452 39.028C226.676 39.028 226.956 39.112 227.292 39.28C227.646 39.4293 227.992 39.672 228.328 40.008C228.682 40.3253 228.981 40.736 229.224 41.24C229.466 41.744 229.588 42.3413 229.588 43.032C229.588 43.8907 229.354 44.8893 228.888 46.028C228.44 47.148 227.824 48.3147 227.04 49.528C226.274 50.7227 225.397 51.8987 224.408 53.056C223.437 54.1947 222.42 55.2307 221.356 56.164C220.292 57.0787 219.246 57.8067 218.22 58.348C217.212 58.908 216.278 59.188 215.42 59.188C214.692 59.188 214.206 58.964 213.964 58.516C213.721 58.068 213.6 57.48 213.6 56.752C213.6 55.6133 213.786 54.372 214.16 53.028C214.552 51.684 215.028 50.2933 215.588 48.856C216.166 47.4 216.736 45.9533 217.296 44.516C217.874 43.0787 218.35 41.6973 218.724 40.372C219.116 39.0467 219.312 37.824 219.312 36.704C219.312 35.4347 218.948 34.576 218.22 34.128C217.51 33.68 216.577 33.456 215.42 33.456C214.281 33.456 213.068 33.6707 211.78 34.1C210.51 34.5293 209.26 35.136 208.028 35.92C206.814 36.704 205.713 37.6467 204.724 38.748C203.734 39.8307 202.941 41.044 202.344 42.388C201.765 43.7133 201.476 45.1413 201.476 46.672C201.476 47.568 201.625 48.408 201.924 49.192C202.241 49.9573 202.745 50.5827 203.436 51.068C204.126 51.5347 205.032 51.768 206.152 51.768C206.992 51.768 207.794 51.5907 208.56 51.236C209.344 50.8813 210.034 50.4053 210.632 49.808C211.229 49.192 211.705 48.5107 212.06 47.764C212.414 47.0173 212.592 46.252 212.592 45.468C212.592 44.8333 212.461 44.2827 212.2 43.816C211.938 43.3307 211.5 43.088 210.884 43.088C210.641 43.088 210.389 43.1253 210.128 43.2C209.866 43.2747 209.689 43.312 209.596 43.312C209.502 43.312 209.456 43.256 209.456 43.144C209.456 43.1067 209.474 43.06 209.512 43.004C209.549 42.948 209.614 42.892 209.708 42.836C209.913 42.724 210.165 42.64 210.464 42.584C210.762 42.5093 211.024 42.472 211.248 42.472C212.069 42.472 212.704 42.7613 213.152 43.34C213.6 43.9187 213.824 44.6187 213.824 45.44C213.824 46.336 213.59 47.204 213.124 48.044C212.657 48.884 212.032 49.64 211.248 50.312C210.482 50.984 209.614 51.516 208.644 51.908C207.692 52.3 206.712 52.496 205.704 52.496C204.453 52.496 203.389 52.188 202.512 51.572C201.653 50.956 201 50.1533 200.552 49.164C200.122 48.156 199.908 47.0827 199.908 45.944C199.908 44.4693 200.197 43.0693 200.776 41.744C201.373 40.4 202.185 39.1867 203.212 38.104C204.238 37.0027 205.405 36.0507 206.712 35.248C208.018 34.4453 209.39 33.8293 210.828 33.4C212.284 32.952 213.73 32.728 215.168 32.728C216.25 32.728 217.221 32.9053 218.08 33.26C218.957 33.6147 219.648 34.184 220.152 34.968C220.674 35.7333 220.936 36.76 220.936 38.048ZM230.531 56.5C229.766 56.5 229.197 56.2293 228.823 55.688C228.469 55.128 228.291 54.456 228.291 53.672C228.291 52.944 228.431 52.188 228.711 51.404C229.01 50.5453 229.421 49.7613 229.943 49.052C230.485 48.3427 231.073 47.7733 231.707 47.344C232.361 46.896 233.005 46.672 233.639 46.672C234.405 46.672 234.965 46.9333 235.319 47.456C235.693 47.9787 235.879 48.6413 235.879 49.444C235.879 50.004 235.786 50.592 235.599 51.208C235.413 51.824 235.161 52.4307 234.843 53.028C235.086 53.2707 235.431 53.392 235.879 53.392C236.402 53.392 236.85 53.224 237.223 52.888C237.597 52.552 237.961 51.9547 238.315 51.096C238.539 51.096 238.651 51.18 238.651 51.348C238.297 52.2067 237.886 52.8413 237.419 53.252C236.971 53.644 236.393 53.8307 235.683 53.812C235.254 53.812 234.899 53.6907 234.619 53.448C234.097 54.3067 233.471 55.0347 232.743 55.632C232.034 56.2107 231.297 56.5 230.531 56.5ZM230.923 55.884C231.353 55.884 231.782 55.7067 232.211 55.352C232.641 54.9787 233.033 54.5587 233.387 54.092C233.742 53.6253 233.994 53.224 234.143 52.888C233.845 52.3467 233.667 51.9453 233.611 51.684C233.574 51.404 233.555 51.1987 233.555 51.068C233.555 50.7133 233.649 50.4427 233.835 50.256C234.022 50.0693 234.209 49.976 234.395 49.976C234.657 49.976 234.881 50.088 235.067 50.312C235.105 50.1067 235.133 49.92 235.151 49.752C235.17 49.5653 235.179 49.388 235.179 49.22C235.179 48.7347 235.086 48.3427 234.899 48.044C234.731 47.7267 234.461 47.568 234.087 47.568C233.695 47.568 233.285 47.736 232.855 48.072C232.426 48.408 232.015 48.856 231.623 49.416C231.25 49.976 230.923 50.6013 230.643 51.292C230.401 51.8707 230.214 52.4213 230.083 52.944C229.953 53.448 229.887 53.9147 229.887 54.344C229.887 54.8107 229.971 55.184 230.139 55.464C230.307 55.744 230.569 55.884 230.923 55.884ZM239.124 56.5C238.919 56.5 238.667 56.4533 238.368 56.36C238.088 56.2667 237.836 56.0987 237.612 55.856C237.407 55.5947 237.304 55.212 237.304 54.708C237.304 54.2227 237.463 53.6627 237.78 53.028C238.097 52.3933 238.377 51.8333 238.62 51.348C238.415 51.348 238.312 51.264 238.312 51.096C238.331 51.04 238.415 50.8627 238.564 50.564C238.713 50.2653 238.891 49.9107 239.096 49.5C239.301 49.0893 239.497 48.6973 239.684 48.324C239.889 47.932 240.048 47.6333 240.16 47.428C240.384 47.0173 240.739 46.812 241.224 46.812H242.96C242.643 47.0547 242.353 47.3253 242.092 47.624C241.849 47.904 241.541 48.4267 241.168 49.192C241.168 49.192 241.103 49.3227 240.972 49.584C240.841 49.8453 240.673 50.1813 240.468 50.592C240.281 50.984 240.085 51.3853 239.88 51.796C239.693 52.2067 239.535 52.552 239.404 52.832C239.161 53.3547 239.003 53.7747 238.928 54.092C238.853 54.3907 238.816 54.6707 238.816 54.932C238.816 55.548 239.021 55.856 239.432 55.856C239.88 55.856 240.421 55.492 241.056 54.764C241.579 54.148 242.092 53.4107 242.596 52.552C243.1 51.6933 243.576 50.8067 244.024 49.892C244.491 48.9773 244.901 48.156 245.256 47.428C245.461 47.0173 245.825 46.812 246.348 46.812H247.888C247.477 47.148 247.057 47.652 246.628 48.324C246.217 48.996 245.76 49.8547 245.256 50.9C245.125 51.18 244.957 51.5347 244.752 51.964C244.547 52.3933 244.36 52.8507 244.192 53.336C244.043 53.8213 243.968 54.3067 243.968 54.792C243.968 55.4453 244.201 55.772 244.668 55.772C245.303 55.772 245.919 55.3333 246.516 54.456C247.113 53.5787 247.701 52.4587 248.28 51.096C248.429 51.096 248.513 51.1053 248.532 51.124C248.569 51.1427 248.597 51.2173 248.616 51.348C248.411 51.852 248.159 52.4027 247.86 53C247.58 53.5787 247.253 54.1387 246.88 54.68C246.525 55.2213 246.124 55.66 245.676 55.996C245.247 56.332 244.771 56.5 244.248 56.5C243.781 56.5 243.399 56.332 243.1 55.996C242.801 55.6413 242.652 55.1467 242.652 54.512C242.652 54.008 242.745 53.4667 242.932 52.888C242.615 53.448 242.251 54.008 241.84 54.568C241.429 55.128 240.991 55.5947 240.524 55.968C240.057 56.3227 239.591 56.5 239.124 56.5ZM248.881 56.612C248.115 56.612 247.49 56.3787 247.005 55.912C246.538 55.4267 246.305 54.9227 246.305 54.4C246.305 53.9707 246.417 53.5787 246.641 53.224C246.846 52.8507 247.126 52.664 247.481 52.664L247.509 52.608C247.919 51.8613 248.311 51.1053 248.685 50.34C249.077 49.556 249.506 48.7253 249.973 47.848C250.365 47.12 250.785 46.5227 251.233 46.056C251.699 45.5893 252.241 45.356 252.857 45.356C253.006 45.356 253.211 45.3933 253.473 45.468C253.734 45.524 253.865 45.6547 253.865 45.86C253.865 46.0093 253.781 46.084 253.613 46.084C253.482 46.084 253.333 46.0467 253.165 45.972C253.015 45.8973 252.894 45.86 252.801 45.86C252.446 45.86 252.147 46.0653 251.905 46.476C251.662 46.8867 251.541 47.3253 251.541 47.792C251.541 48.296 251.625 48.7533 251.793 49.164C251.961 49.556 252.157 49.9387 252.381 50.312C252.605 50.6853 252.801 51.068 252.969 51.46C253.137 51.8333 253.221 52.244 253.221 52.692C253.221 53.588 253.043 54.316 252.689 54.876C252.353 55.4173 251.905 55.828 251.345 56.108H251.373C252.362 56.108 253.174 55.6507 253.809 54.736C254.462 53.8027 255.106 52.5893 255.741 51.096C255.965 51.096 256.077 51.18 256.077 51.348C255.722 52.188 255.33 53.0093 254.901 53.812C254.471 54.6147 253.967 55.2773 253.389 55.8C252.81 56.3227 252.101 56.584 251.261 56.584C250.906 56.584 250.579 56.5467 250.281 56.472C249.851 56.5653 249.385 56.612 248.881 56.612ZM248.461 53.644C248.461 54.092 248.563 54.5213 248.769 54.932C248.974 55.3427 249.347 55.6507 249.889 55.856C250.374 55.576 250.747 55.1467 251.009 54.568C251.289 53.9707 251.429 53.3547 251.429 52.72C251.429 52.1973 251.373 51.6653 251.261 51.124C251.149 50.5827 251.027 50.0507 250.897 49.528C250.785 49.0053 250.729 48.5387 250.729 48.128C250.729 47.9973 250.729 47.8853 250.729 47.792C250.747 47.68 250.766 47.5773 250.785 47.484C250.449 47.988 250.103 48.576 249.749 49.248C249.413 49.92 249.086 50.564 248.769 51.18C248.451 51.796 248.162 52.3 247.901 52.692C248.274 52.748 248.461 53.0653 248.461 53.644ZM247.537 55.044C247.537 55.3427 247.639 55.604 247.845 55.828C248.05 56.052 248.358 56.164 248.769 56.164C248.955 56.164 249.133 56.1453 249.301 56.108C248.909 55.8653 248.591 55.5573 248.349 55.184C248.125 54.8107 248.013 54.3813 248.013 53.896C247.845 54.0827 247.723 54.2787 247.649 54.484C247.574 54.6707 247.537 54.8573 247.537 55.044Z" fill="#CFB164"/>
<path d="M43 67.5H257" stroke="#CFB164" stroke-width="3"/>
</g>
<defs>
<filter id="filter0_d_1_3" x="-4" y="0" width="308" height="108" filterUnits="userSpaceOnUse" color-interpolation-filters="sRGB">
<feFlood flood-opacity="0" result="BackgroundImageFix"/>
<feColorMatrix in="SourceAlpha" type="matrix" values="0 0 0 0 0 0 0 0 0 0 0 0 0 0 0 0 0 0 127 0" result="hardAlpha"/>
<feOffset dy="4"/>
<feGaussianBlur stdDeviation="2"/>
<feComposite in2="hardAlpha" operator="out"/>
<feColorMatrix type="matrix" values="0 0 0 0 0 0 0 0 0 0 0 0 0 0 0 0 0 0 0.25 0"/>
<feBlend mode="normal" in2="BackgroundImageFix" result="effect1_dropShadow_1_3"/>
<feBlend mode="normal" in="SourceGraphic" in2="effect1_dropShadow_1_3" result="shape"/>
</filter>
</defs>
</svg>
